{"glyphs":{"0":{"ha":765,"x_min":43,"x_max":722,"o":"m 722 496 q 704 281 722 376 q 644 121 685 187 q 538 21 603 56 q 382 -14 473 -14 q 232 21 296 -14 q 126 121 168 56 q 63 281 84 187 q 43 496 43 376 q 61 711 43 616 q 121 871 80 806 q 226 972 161 937 q 382 1007 290 1007 q 531 972 467 1007 q 637 872 595 938 q 701 711 680 806 q 722 496 722 616 m 252 496 q 281 241 252 326 q 382 155 310 155 q 483 240 452 155 q 514 496 514 325 q 483 752 514 666 q 382 838 452 838 q 321 816 346 838 q 281 751 296 794 q 258 645 265 709 q 252 496 252 581 z "},"1":{"ha":765,"x_min":62,"x_max":554,"o":"m 554 0 l 345 0 l 345 574 q 345 616 345 591 q 346 668 345 641 q 348 722 347 694 q 350 771 349 749 q 338 759 347 767 q 320 741 330 751 q 299 721 310 731 q 278 703 288 711 l 164 611 l 62 737 l 382 991 l 554 991 l 554 0 z "},"2":{"ha":765,"x_min":53,"x_max":721,"o":"m 721 0 l 56 0 l 56 146 l 289 397 q 369 485 333 445 q 431 563 405 525 q 471 640 456 601 q 485 725 485 680 q 455 803 485 775 q 374 831 425 831 q 271 804 320 831 q 167 729 221 778 l 53 864 q 117 917 83 892 q 190 962 150 943 q 278 994 230 982 q 386 1006 326 1006 q 514 986 457 1006 q 610 930 570 966 q 672 842 650 894 q 693 726 693 791 q 673 615 693 668 q 617 510 652 562 q 535 409 582 459 q 436 306 489 358 l 317 186 l 317 176 l 721 176 l 721 0 z "},"3":{"ha":765,"x_min":39,"x_max":711,"o":"m 682 770 q 666 677 682 718 q 620 605 649 636 q 552 554 591 574 q 468 522 513 533 l 468 518 q 650 445 588 503 q 711 289 711 387 q 688 169 711 224 q 616 73 665 113 q 494 9 568 32 q 321 -14 420 -14 q 170 0 241 -14 q 39 40 100 13 l 39 218 q 103 190 69 202 q 171 169 137 178 q 238 157 205 161 q 300 153 271 153 q 397 163 358 153 q 458 194 435 174 q 491 241 481 214 q 501 301 501 269 q 489 356 501 332 q 448 398 476 381 q 374 425 420 416 q 262 435 329 435 l 192 435 l 192 582 l 261 582 q 365 593 323 582 q 431 624 406 604 q 466 669 456 643 q 476 724 476 694 q 443 806 476 777 q 339 836 410 836 q 278 830 307 836 q 226 813 250 823 q 182 792 202 804 q 146 768 162 780 l 40 908 q 102 947 68 929 q 175 978 136 964 q 260 998 214 991 q 357 1006 305 1006 q 490 990 430 1006 q 593 944 550 974 q 659 870 635 913 q 682 770 682 826 z "},"4":{"ha":765,"x_min":3,"x_max":736,"o":"m 736 205 l 616 205 l 616 0 l 412 0 l 412 205 l 3 205 l 3 351 l 424 991 l 616 991 l 616 368 l 736 368 l 736 205 m 412 368 l 412 536 q 413 562 412 545 q 414 600 413 578 q 415 643 414 621 q 417 686 416 665 q 419 721 418 706 q 421 743 420 736 l 415 743 q 388 683 403 715 q 353 619 372 651 l 187 368 l 412 368 z "},"5":{"ha":765,"x_min":58,"x_max":707,"o":"m 406 633 q 524 614 469 633 q 620 556 579 594 q 684 461 661 518 q 707 332 707 405 q 682 187 707 251 q 608 78 656 123 q 487 10 559 34 q 321 -14 414 -14 q 247 -10 283 -14 q 177 0 210 -7 q 113 16 143 6 q 58 40 83 26 l 58 221 q 113 196 82 208 q 178 175 144 184 q 245 162 212 167 q 310 157 279 157 q 448 194 401 157 q 496 314 496 232 q 449 426 496 387 q 306 464 403 464 q 268 462 288 464 q 229 456 248 460 q 192 449 210 453 q 161 441 174 446 l 78 486 l 115 991 l 639 991 l 639 814 l 297 814 l 281 619 q 331 629 302 624 q 406 633 360 633 z "},"6":{"ha":765,"x_min":52,"x_max":724,"o":"m 52 421 q 59 563 52 492 q 87 698 67 633 q 141 819 107 763 q 228 915 176 874 q 354 980 281 956 q 526 1003 428 1003 q 557 1002 541 1003 q 592 1001 574 1002 q 625 998 609 1000 q 654 993 642 996 l 654 825 q 600 835 629 831 q 542 839 571 839 q 391 816 450 839 q 298 753 332 793 q 249 655 263 712 q 231 529 234 598 l 239 529 q 272 575 252 553 q 317 611 291 596 q 375 635 342 627 q 447 644 407 644 q 563 623 511 644 q 650 562 614 602 q 705 464 686 522 q 724 330 724 406 q 701 186 724 250 q 636 78 678 122 q 534 10 594 33 q 400 -14 475 -14 q 263 13 327 -14 q 152 92 199 39 q 78 228 105 146 q 52 421 52 309 m 396 154 q 447 164 424 154 q 486 196 469 175 q 512 250 503 218 q 521 328 521 283 q 491 442 521 400 q 399 484 460 484 q 342 471 368 484 q 298 439 316 459 q 270 395 279 420 q 260 346 260 371 q 268 277 260 311 q 294 215 277 243 q 337 171 311 188 q 396 154 362 154 z "},"7":{"ha":765,"x_min":37,"x_max":721,"o":"m 140 0 l 493 814 l 37 814 l 37 990 l 721 990 l 721 859 l 359 0 l 140 0 z "},"8":{"ha":765,"x_min":49,"x_max":717,"o":"m 383 1004 q 500 989 445 1004 q 596 945 555 975 q 662 870 637 915 q 686 765 686 825 q 673 684 686 720 q 635 618 659 648 q 579 566 612 589 q 509 524 547 543 q 586 477 548 503 q 652 419 623 451 q 699 347 682 387 q 717 257 717 307 q 692 145 717 195 q 624 60 668 95 q 518 5 580 24 q 383 -14 457 -14 q 241 5 303 -14 q 136 57 178 23 q 71 140 93 91 q 49 252 49 190 q 64 343 49 302 q 104 416 79 384 q 165 474 130 449 q 239 518 199 499 q 176 564 205 539 q 126 619 147 589 q 92 686 104 649 q 79 766 79 722 q 104 870 79 825 q 171 944 129 914 q 268 989 213 975 q 383 1004 323 1004 m 243 264 q 252 214 243 237 q 278 175 260 191 q 321 150 295 159 q 380 140 347 140 q 487 174 452 140 q 522 262 522 208 q 510 314 522 291 q 480 356 498 336 q 437 391 461 375 q 390 422 414 408 l 375 432 q 321 400 345 417 q 279 362 296 382 q 252 317 262 341 q 243 264 243 292 m 382 851 q 340 844 359 851 q 307 825 321 838 q 285 793 293 812 q 277 750 277 774 q 285 701 277 722 q 308 664 294 680 q 342 636 323 648 q 383 611 361 623 q 423 635 404 622 q 457 664 442 648 q 480 702 471 681 q 489 750 489 723 q 481 793 489 774 q 458 825 473 812 q 425 844 444 838 q 382 851 405 851 z "},"9":{"ha":765,"x_min":43,"x_max":715,"o":"m 715 568 q 708 426 715 497 q 680 291 700 355 q 626 171 660 227 q 539 74 591 115 q 413 10 486 33 q 240 -14 339 -14 q 209 -13 226 -14 q 175 -11 192 -12 q 141 -8 157 -10 q 113 -4 125 -7 l 113 164 q 166 154 138 157 q 225 150 195 150 q 376 173 317 150 q 469 236 435 195 q 518 334 504 277 q 536 460 533 391 l 528 460 q 495 414 514 435 q 450 378 476 393 q 392 353 425 362 q 319 345 359 345 q 203 366 255 345 q 116 427 152 387 q 62 525 81 467 q 43 659 43 583 q 65 803 43 739 q 130 911 88 867 q 232 979 172 956 q 367 1003 292 1003 q 504 977 440 1003 q 614 897 568 951 q 688 762 661 844 q 715 568 715 680 m 371 835 q 320 825 343 835 q 280 793 297 814 q 255 739 264 772 q 245 661 245 706 q 276 547 245 589 q 368 505 307 505 q 425 517 399 505 q 469 549 451 530 q 497 593 488 569 q 507 643 507 618 q 499 712 507 677 q 473 773 490 746 q 430 818 456 801 q 371 835 405 835 z "}," ":{"ha":361,"x_min":0,"x_max":0,"o":""},"!":{"ha":397,"x_min":79,"x_max":317,"o":"m 282 329 l 117 329 l 82 991 l 317 991 l 282 329 m 79 97 q 89 151 79 129 q 114 186 98 173 q 152 206 130 200 q 199 212 174 212 q 244 206 222 212 q 281 186 265 200 q 307 151 298 173 q 317 97 317 129 q 307 45 317 66 q 281 9 298 23 q 244 -12 265 -5 q 199 -18 222 -18 q 152 -12 174 -18 q 114 9 130 -5 q 89 45 98 23 q 79 97 79 66 z "},"\"":{"ha":656,"x_min":90,"x_max":566,"o":"m 279 991 l 252 633 l 118 633 l 90 991 l 279 991 m 566 991 l 538 633 l 404 633 l 376 991 l 566 991 z "},"#":{"ha":897,"x_min":31,"x_max":867,"o":"m 677 572 l 646 415 l 821 415 l 821 275 l 619 275 l 567 0 l 418 0 l 471 275 l 339 275 l 288 0 l 142 0 l 192 275 l 31 275 l 31 415 l 218 415 l 250 572 l 79 572 l 79 714 l 275 714 l 328 990 l 476 990 l 424 714 l 558 714 l 611 990 l 757 990 l 704 714 l 867 714 l 867 572 l 677 572 m 366 415 l 498 415 l 530 572 l 397 572 l 366 415 z "},"$":{"ha":765,"x_min":66,"x_max":720,"o":"m 720 310 q 702 216 720 259 q 648 140 684 172 q 559 86 612 107 q 437 58 507 65 l 437 -81 l 345 -81 l 345 56 q 262 61 300 57 q 191 73 224 65 q 127 91 157 80 q 68 114 97 101 l 68 293 q 130 266 96 279 q 199 242 163 253 q 272 224 235 232 q 345 215 309 217 l 345 431 q 333 435 339 433 q 322 439 328 437 q 313 443 317 441 q 205 492 251 467 q 128 550 159 518 q 82 621 97 582 q 66 708 66 659 q 86 801 66 759 q 141 873 105 842 q 229 923 177 904 q 345 949 280 943 l 345 1055 l 437 1055 l 437 953 q 558 936 496 949 q 688 893 620 922 l 619 734 q 527 766 575 752 q 437 783 479 780 l 437 585 l 464 575 q 576 526 528 551 q 656 470 625 501 q 704 400 688 439 q 720 310 720 361 m 515 306 q 511 334 515 322 q 497 357 507 347 q 473 375 488 367 q 437 393 458 384 l 437 222 q 496 249 477 229 q 515 306 515 269 m 271 713 q 288 660 271 681 q 345 624 306 638 l 345 782 q 289 762 308 778 q 271 713 271 745 z "},"%":{"ha":1223,"x_min":43,"x_max":1181,"o":"m 214 694 q 229 566 214 608 q 278 524 244 524 q 327 566 311 524 q 343 694 343 608 q 278 864 343 864 q 229 822 244 864 q 214 694 214 781 m 514 696 q 500 564 514 623 q 457 466 486 506 q 383 405 428 426 q 277 383 338 383 q 175 405 219 383 q 102 466 132 426 q 58 564 73 506 q 43 696 43 623 q 56 827 43 769 q 99 924 70 884 q 172 985 127 964 q 277 1006 216 1006 q 379 985 335 1006 q 454 924 424 964 q 499 827 484 884 q 514 696 514 769 m 966 991 l 416 0 l 254 0 l 804 991 l 966 991 m 880 298 q 896 170 880 212 q 945 127 911 127 q 994 170 978 127 q 1010 298 1010 212 q 945 468 1010 468 q 896 426 911 468 q 880 298 880 385 m 1181 300 q 1167 169 1181 227 q 1124 71 1153 111 q 1050 9 1095 31 q 943 -12 1005 -12 q 842 9 886 -12 q 769 71 799 31 q 725 169 740 111 q 710 300 710 227 q 724 431 710 373 q 766 528 737 488 q 838 589 794 568 q 943 610 882 610 q 1046 589 1002 610 q 1120 528 1090 568 q 1165 431 1150 488 q 1181 300 1181 373 z "},"&":{"ha":1003,"x_min":56,"x_max":1000,"o":"m 1000 0 l 745 0 l 679 68 q 559 8 625 31 q 415 -14 494 -14 q 268 7 334 -14 q 154 64 201 27 q 81 153 107 101 q 56 268 56 205 q 68 361 56 320 q 104 435 81 402 q 160 496 127 469 q 233 547 193 523 q 190 607 208 578 q 161 664 172 636 q 145 721 150 692 q 140 779 140 749 q 161 874 140 832 q 219 945 182 916 q 307 990 256 975 q 419 1006 358 1006 q 527 991 477 1006 q 611 950 576 977 q 667 882 647 922 q 688 790 688 842 q 672 704 688 743 q 631 632 657 665 q 571 571 606 599 q 496 519 536 543 l 672 338 q 714 432 696 382 q 745 532 732 481 l 960 532 q 936 450 949 493 q 903 365 922 408 q 861 279 885 321 q 808 197 838 236 l 1000 0 m 273 288 q 284 234 273 258 q 314 194 295 210 q 360 169 334 178 q 416 160 386 160 q 492 171 457 160 q 555 200 526 181 l 346 424 q 292 363 311 395 q 273 288 273 330 m 496 762 q 489 798 496 783 q 471 822 482 812 q 446 836 460 831 q 418 840 432 840 q 388 836 403 840 q 360 823 372 832 q 339 799 347 814 q 332 761 332 783 q 347 694 332 726 q 390 632 363 663 q 469 692 442 662 q 496 762 496 722 z "},"'":{"ha":370,"x_min":90,"x_max":279,"o":"m 279 991 l 252 633 l 118 633 l 90 991 l 279 991 z "},"(":{"ha":471,"x_min":56,"x_max":429,"o":"m 56 380 q 68 548 56 465 q 105 708 80 630 q 169 857 130 785 q 260 991 207 928 l 429 991 q 285 704 334 861 q 236 382 236 547 q 248 221 236 301 q 285 64 260 141 q 345 -84 309 -12 q 428 -220 381 -156 l 260 -220 q 169 -89 207 -159 q 105 57 130 -19 q 68 215 80 134 q 56 380 56 296 z "},")":{"ha":471,"x_min":41,"x_max":415,"o":"m 415 380 q 403 215 415 296 q 366 57 391 134 q 302 -89 340 -19 q 211 -220 264 -159 l 43 -220 q 125 -84 90 -156 q 186 64 161 -12 q 222 221 210 141 q 235 382 235 301 q 186 704 235 547 q 41 991 137 861 l 211 991 q 302 857 264 928 q 366 708 340 785 q 403 548 391 630 q 415 380 415 465 z "},"*":{"ha":757,"x_min":43,"x_max":714,"o":"m 467 1055 l 439 806 l 692 876 l 714 705 l 484 689 l 635 488 l 481 406 l 375 618 l 282 407 l 122 488 l 272 689 l 43 707 l 69 876 l 317 806 l 289 1055 l 467 1055 z "},"+":{"ha":765,"x_min":60,"x_max":705,"o":"m 309 415 l 60 415 l 60 564 l 309 564 l 309 814 l 457 814 l 457 564 l 705 564 l 705 415 l 457 415 l 457 168 l 309 168 l 309 415 z "},",":{"ha":403,"x_min":43,"x_max":311,"o":"m 311 146 q 289 68 302 109 q 259 -16 275 26 q 226 -99 243 -58 q 192 -179 209 -141 l 43 -179 q 63 -93 53 -138 q 82 -4 73 -48 q 98 83 91 41 q 111 161 106 125 l 301 161 l 311 146 z "},"-":{"ha":447,"x_min":41,"x_max":406,"o":"m 41 288 l 41 457 l 406 457 l 406 288 l 41 288 z "},".":{"ha":396,"x_min":79,"x_max":317,"o":"m 79 97 q 89 151 79 129 q 114 186 98 173 q 152 206 130 200 q 199 212 174 212 q 244 206 222 212 q 281 186 265 200 q 307 151 298 173 q 317 97 317 129 q 307 45 317 66 q 281 9 298 23 q 244 -12 265 -5 q 199 -18 222 -18 q 152 -12 174 -18 q 114 9 130 -5 q 89 45 98 23 q 79 97 79 66 z "},"/":{"ha":574,"x_min":9,"x_max":567,"o":"m 567 991 l 197 0 l 9 0 l 379 991 l 567 991 z "},":":{"ha":396,"x_min":79,"x_max":317,"o":"m 79 97 q 89 151 79 129 q 114 186 98 173 q 152 206 130 200 q 199 212 174 212 q 244 206 222 212 q 281 186 265 200 q 307 151 298 173 q 317 97 317 129 q 307 45 317 66 q 281 9 298 23 q 244 -12 265 -5 q 199 -18 222 -18 q 152 -12 174 -18 q 114 9 130 -5 q 89 45 98 23 q 79 97 79 66 m 79 657 q 89 711 79 689 q 114 747 98 733 q 152 766 130 760 q 199 772 174 772 q 244 766 222 772 q 281 747 265 760 q 307 711 298 733 q 317 657 317 689 q 307 605 317 627 q 281 569 298 583 q 244 548 265 555 q 199 542 222 542 q 152 548 174 542 q 114 569 130 555 q 89 605 98 583 q 79 657 79 627 z "},";":{"ha":403,"x_min":43,"x_max":317,"o":"m 301 161 l 311 146 q 289 68 302 109 q 259 -16 275 26 q 226 -99 243 -58 q 192 -179 209 -141 l 43 -179 q 63 -93 53 -138 q 82 -4 73 -48 q 98 83 91 41 q 111 161 106 125 l 301 161 m 79 657 q 89 711 79 689 q 114 747 98 733 q 152 766 130 760 q 199 772 174 772 q 244 766 222 772 q 281 747 265 760 q 307 711 298 733 q 317 657 317 689 q 307 605 317 627 q 281 569 298 583 q 244 548 265 555 q 199 542 222 542 q 152 548 174 542 q 114 569 130 555 q 89 605 98 583 q 79 657 79 627 z "},"<":{"ha":765,"x_min":60,"x_max":705,"o":"m 705 138 l 60 435 l 60 532 l 705 868 l 705 705 l 269 490 l 705 300 l 705 138 z "},"=":{"ha":765,"x_min":60,"x_max":705,"o":"m 60 547 l 60 694 l 705 694 l 705 547 l 60 547 m 60 283 l 60 432 l 705 432 l 705 283 l 60 283 z "},">":{"ha":765,"x_min":60,"x_max":705,"o":"m 60 300 l 496 490 l 60 705 l 60 868 l 705 532 l 705 435 l 60 138 l 60 300 z "},"?":{"ha":637,"x_min":17,"x_max":600,"o":"m 179 329 l 179 379 q 186 442 179 414 q 208 495 193 470 q 245 545 222 521 q 301 595 269 569 q 349 635 330 617 q 381 670 369 652 q 399 706 393 687 q 404 750 404 725 q 378 814 404 789 q 298 839 352 839 q 198 819 252 839 q 86 771 144 800 l 17 921 q 80 953 46 938 q 152 980 115 968 q 227 999 189 992 q 301 1006 264 1006 q 426 989 370 1006 q 520 941 481 972 q 579 863 559 909 q 600 760 600 818 q 591 683 600 717 q 563 621 581 650 q 516 565 544 592 q 450 509 488 538 q 404 470 422 486 q 376 438 386 453 q 362 407 366 423 q 358 370 358 391 l 358 329 l 179 329 m 157 97 q 166 151 157 129 q 191 186 175 173 q 230 206 208 200 q 277 212 252 212 q 322 206 300 212 q 359 186 343 200 q 385 151 376 173 q 395 97 395 129 q 385 45 395 66 q 359 9 376 23 q 322 -12 343 -5 q 277 -18 300 -18 q 230 -12 252 -18 q 191 9 208 -5 q 166 45 175 23 q 157 97 157 66 z "},"@":{"ha":1203,"x_min":69,"x_max":1135,"o":"m 1135 510 q 1119 382 1135 446 q 1073 270 1104 319 q 995 189 1042 220 q 884 158 947 158 q 835 164 858 158 q 793 183 812 171 q 761 211 774 195 q 739 245 747 227 l 729 245 q 699 213 716 229 q 661 184 682 197 q 615 165 640 172 q 559 158 589 158 q 459 177 503 158 q 386 232 416 197 q 340 318 356 268 q 325 428 325 368 q 346 556 325 498 q 406 657 367 614 q 502 723 446 699 q 628 746 558 746 q 691 743 659 746 q 754 734 724 739 q 810 722 784 728 q 856 708 837 715 l 842 424 q 840 395 840 409 q 840 376 840 380 q 845 330 840 348 q 856 301 849 311 q 872 286 863 290 q 892 282 882 282 q 933 300 916 282 q 962 350 951 319 q 980 423 974 381 q 986 511 986 465 q 960 666 986 598 q 889 781 935 734 q 780 852 843 827 q 643 876 717 876 q 460 842 539 876 q 328 745 381 807 q 247 598 275 683 q 220 412 220 513 q 243 247 220 319 q 314 125 267 174 q 429 51 361 76 q 587 25 498 25 q 665 30 625 25 q 745 43 705 35 q 823 62 785 51 q 896 87 861 74 l 896 -43 q 754 -88 832 -71 q 589 -104 677 -104 q 369 -70 466 -104 q 206 31 273 -35 q 104 192 140 97 q 69 408 69 288 q 87 569 69 492 q 140 712 106 646 q 225 832 175 779 q 338 925 275 886 q 479 984 402 963 q 643 1004 555 1004 q 840 970 750 1004 q 996 872 930 936 q 1098 716 1061 808 q 1135 510 1135 625 m 482 425 q 508 316 482 349 q 576 282 534 282 q 626 295 605 282 q 660 333 646 309 q 680 390 673 357 q 689 465 687 424 l 697 615 q 665 621 684 618 q 628 623 647 623 q 560 606 588 623 q 515 561 532 589 q 490 497 498 533 q 482 425 482 462 z "},"{":{"ha":505,"x_min":21,"x_max":492,"o":"m 195 183 q 150 277 195 249 q 21 304 106 304 l 21 467 q 96 473 63 467 q 151 494 129 479 q 185 532 174 509 q 195 587 196 555 l 195 803 q 208 889 195 853 q 254 947 220 924 q 345 981 288 970 q 492 991 403 991 l 492 839 q 443 834 465 838 q 405 820 420 830 q 382 791 390 809 q 374 743 374 772 l 374 541 q 215 390 370 414 l 215 382 q 334 333 293 370 q 374 232 376 296 l 374 29 q 382 -18 374 0 q 405 -47 390 -37 q 443 -62 420 -58 q 492 -66 465 -66 l 492 -220 q 345 -209 403 -220 q 254 -175 288 -198 q 208 -117 220 -153 q 195 -31 195 -81 l 195 183 z "},"|":{"ha":765,"x_min":309,"x_max":457,"o":"m 309 1051 l 457 1051 l 457 -315 l 309 -315 l 309 1051 z "},"}":{"ha":505,"x_min":21,"x_max":492,"o":"m 318 -31 q 305 -117 318 -81 q 259 -175 292 -153 q 168 -209 225 -198 q 21 -220 110 -220 l 21 -66 q 70 -62 48 -66 q 107 -47 92 -58 q 131 -18 122 -37 q 139 29 139 0 l 139 232 q 178 333 137 296 q 297 382 220 370 l 297 390 q 139 541 143 414 l 139 743 q 131 791 139 772 q 107 820 122 809 q 70 834 92 830 q 21 839 48 838 l 21 991 q 168 981 110 991 q 259 947 225 970 q 305 889 292 924 q 318 803 318 853 l 318 587 q 328 532 317 555 q 361 494 339 509 q 417 473 384 479 q 492 467 450 467 l 492 304 q 362 277 407 304 q 318 183 318 249 l 318 -31 z "},"~":{"ha":765,"x_min":60,"x_max":705,"o":"m 358 418 q 314 436 333 429 q 278 448 294 444 q 248 454 262 452 q 218 456 234 456 q 178 449 199 456 q 136 432 157 443 q 97 406 116 420 q 60 374 77 391 l 60 530 q 137 586 94 567 q 233 604 180 604 q 271 603 254 604 q 308 596 288 601 q 351 583 327 591 q 407 561 374 574 q 452 543 433 550 q 488 531 471 536 q 518 525 504 527 q 547 524 532 524 q 588 530 567 524 q 629 547 609 536 q 669 573 650 558 q 705 606 688 589 l 705 449 q 532 375 637 375 q 494 377 511 375 q 457 383 477 378 q 414 396 438 387 q 358 418 391 404 z "},"​":{"ha":0,"x_min":0,"x_max":0,"o":""},"«":{"ha":812,"x_min":56,"x_max":757,"o":"m 56 389 l 265 697 l 414 616 l 267 380 l 414 144 l 265 64 l 56 371 l 56 389 m 399 389 l 608 697 l 757 616 l 610 380 l 757 144 l 608 64 l 399 371 l 399 389 z "},"­":{"ha":447,"x_min":41,"x_max":406,"o":"m 41 288 l 41 457 l 406 457 l 406 288 l 41 288 z "},"»":{"ha":812,"x_min":57,"x_max":758,"o":"m 758 371 l 549 64 l 400 144 l 547 380 l 400 616 l 549 697 l 758 389 l 758 371 m 415 371 l 205 64 l 57 144 l 204 380 l 57 616 l 205 697 l 415 389 l 415 371 z "},"ក":{"ha":949,"x_min":102,"x_max":848,"o":"m 136 0 l 136 509 q 475 712 136 712 q 814 509 814 712 l 814 0 l 610 0 l 610 509 q 475 644 610 644 q 339 509 339 644 l 339 0 l 136 0 m 102 764 l 102 815 q 145 892 102 850 l 189 933 q 298 1017 276 1017 q 394 941 322 1017 l 430 903 q 468 884 448 884 q 502 903 485 884 l 535 941 q 627 1017 603 1017 q 688 975 650 1017 l 766 890 q 814 865 790 865 q 848 878 831 865 q 758 744 801 744 q 661 792 713 744 q 588 840 610 840 q 520 792 559 840 q 448 744 481 744 q 342 792 400 744 q 260 840 285 840 q 216 825 231 840 q 201 785 201 810 q 293 718 201 765 l 207 656 q 102 764 102 697 z "},"ខ":{"ha":949,"x_min":136,"x_max":814,"o":"m 339 695 l 339 644 q 363 678 363 644 q 339 695 363 695 m 814 203 q 475 0 814 0 q 136 203 136 0 l 136 385 l 373 491 q 610 712 610 597 l 610 814 q 475 949 610 949 q 339 814 339 949 l 339 763 q 406 742 381 763 q 431 678 431 720 q 331 576 431 576 q 136 644 136 576 l 136 814 q 475 1017 136 1017 q 814 814 814 1017 l 814 712 q 458 425 814 583 l 339 372 l 339 203 q 475 68 339 68 q 610 203 610 68 l 610 385 l 814 447 l 814 203 z "},"គ":{"ha":949,"x_min":102,"x_max":848,"o":"m 102 764 l 102 815 q 145 892 102 850 l 189 933 q 298 1017 276 1017 q 394 941 322 1017 l 430 903 q 468 884 448 884 q 502 903 485 884 l 535 941 q 627 1017 603 1017 q 688 975 650 1017 l 766 890 q 814 865 790 865 q 848 878 831 865 q 758 744 801 744 q 661 792 713 744 q 588 840 610 840 q 520 792 559 840 q 448 744 481 744 q 342 792 400 744 q 260 840 285 840 q 216 825 231 840 q 201 785 201 810 q 293 718 201 765 l 207 656 q 102 764 102 697 m 136 0 l 136 509 q 475 712 136 712 q 814 509 814 712 l 814 0 l 610 0 l 610 509 q 475 644 610 644 q 339 509 339 644 l 339 254 q 449 339 389 339 q 543 240 543 339 q 490 174 543 174 q 452 201 452 174 q 435 229 452 229 q 385 160 419 229 l 352 93 l 339 67 l 339 0 l 136 0 z "},"ឃ":{"ha":1424,"x_min":47,"x_max":1356,"o":"m 142 888 q 115 814 115 888 q 142 760 115 760 q 170 831 170 760 q 142 888 170 888 m 610 640 q 509 733 610 711 q 580 909 522 802 q 675 1017 638 1017 q 753 988 705 1017 l 800 959 q 850 946 821 946 q 882 949 865 946 q 849 849 875 902 q 791 791 824 795 q 782 791 787 791 q 697 819 749 791 q 652 833 670 833 q 619 812 629 833 l 601 772 q 814 678 814 732 l 814 203 q 949 68 814 68 q 1085 203 1085 68 l 1085 640 q 983 733 1085 711 q 1055 909 997 802 q 1149 1017 1113 1017 q 1227 988 1179 1017 l 1275 959 q 1324 946 1296 946 q 1356 949 1339 946 q 1324 849 1350 902 q 1265 791 1299 795 q 1257 791 1261 791 q 1172 819 1224 791 q 1126 833 1145 833 q 1094 812 1103 833 l 1076 772 q 1289 678 1289 732 l 1289 203 q 949 0 1289 0 q 712 57 788 0 q 475 0 636 0 q 136 203 136 0 l 136 678 q 47 814 47 678 q 92 960 47 902 q 203 1017 136 1017 q 339 949 339 1017 l 339 203 q 475 68 339 68 q 610 203 610 68 l 610 640 z "},"ង":{"ha":949,"x_min":68,"x_max":814,"o":"m 590 895 q 556 936 590 936 q 529 895 529 936 q 565 835 529 872 q 590 895 590 863 m 170 489 q 153 523 170 523 q 136 475 136 523 q 153 448 136 448 q 170 489 170 448 m 136 373 q 68 475 68 373 q 203 610 68 610 q 339 543 339 610 l 339 130 l 427 218 q 475 241 451 241 q 523 218 499 241 l 610 130 l 610 610 q 598 703 610 684 q 562 739 586 722 q 414 678 465 678 q 196 725 252 678 q 136 854 136 776 q 153 944 136 899 q 170 1038 170 990 q 102 1085 170 1085 q 203 1153 102 1153 q 373 1038 373 1153 q 356 941 373 980 q 339 854 339 902 q 353 780 339 814 q 414 746 366 746 q 498 784 430 746 q 414 895 414 844 q 556 1017 414 1017 q 712 895 712 1017 q 666 795 712 843 q 695 780 680 787 q 814 610 814 734 l 814 68 q 712 0 814 0 q 602 43 644 0 l 475 170 l 348 43 q 237 0 305 0 q 136 68 136 0 l 136 373 z "},"ច":{"ha":949,"x_min":88,"x_max":848,"o":"m 610 543 q 627 515 610 515 q 644 557 644 515 q 627 591 644 591 q 610 543 610 591 m 610 441 q 543 543 543 441 q 678 678 543 678 q 814 610 814 678 l 814 203 q 475 0 814 0 q 136 203 136 0 l 136 690 q 88 764 102 720 l 88 815 q 145 892 102 850 l 189 933 q 298 1017 276 1017 q 394 941 322 1017 l 430 903 q 468 884 448 884 q 502 903 485 884 l 535 941 q 627 1017 603 1017 q 688 975 650 1017 l 766 890 q 814 865 790 865 q 848 878 831 865 q 758 744 801 744 q 661 792 713 744 q 588 840 610 840 q 520 792 559 840 q 448 744 481 744 q 342 792 400 744 q 260 840 285 840 q 227 825 238 840 q 215 785 215 810 q 257 732 215 765 q 339 699 300 699 l 339 203 q 475 68 339 68 q 610 203 610 68 l 610 441 z "},"ឆ":{"ha":949,"x_min":68,"x_max":848,"o":"m 610 543 q 627 515 610 515 q 644 557 644 515 q 627 591 644 591 q 610 543 610 591 m 136 690 q 88 764 102 720 l 88 815 q 145 892 102 850 l 189 933 q 298 1017 276 1017 q 394 941 322 1017 l 430 903 q 468 884 448 884 q 502 903 485 884 l 535 941 q 627 1017 603 1017 q 688 975 650 1017 l 766 890 q 814 865 790 865 q 848 878 831 865 q 758 744 801 744 q 661 792 713 744 q 588 840 610 840 q 520 792 559 840 q 448 744 481 744 q 342 792 400 744 q 260 840 285 840 q 227 825 238 840 q 215 785 215 810 q 257 732 215 765 q 339 699 300 699 l 339 339 q 509 170 509 339 q 576 68 509 68 q 610 170 610 68 l 610 441 q 543 543 543 441 q 678 678 543 678 q 814 610 814 678 l 814 170 q 576 0 814 0 q 407 170 407 0 q 339 271 407 271 l 339 68 q 203 0 339 0 q 102 64 136 0 q 68 203 68 129 q 136 339 68 339 l 136 690 z "},"ជ":{"ha":949,"x_min":68,"x_max":814,"o":"m 610 130 l 610 678 l 814 678 l 814 68 q 712 0 814 0 q 602 43 644 0 l 475 170 l 348 43 q 237 0 305 0 q 136 68 136 0 l 136 685 q 78 747 87 730 q 68 790 68 764 q 78 833 68 815 q 166 934 87 850 q 304 1017 245 1017 q 498 932 370 1017 q 665 848 627 848 q 726 895 726 848 q 702 956 726 929 q 637 983 678 983 q 549 1068 549 983 q 637 1153 549 1153 q 763 1092 712 1153 q 814 929 814 1031 q 759 795 814 846 q 610 743 705 743 q 357 797 443 743 q 252 851 272 851 q 248 850 250 851 q 216 831 229 847 q 203 792 203 814 q 339 706 203 769 l 339 130 l 427 218 q 475 241 451 241 q 523 218 499 241 l 610 130 z "},"ឈ":{"ha":1899,"x_min":136,"x_max":1831,"o":"m 339 136 q 373 271 373 136 q 339 326 373 326 q 305 260 305 326 l 305 193 q 339 136 305 136 m 1085 640 q 983 733 1085 711 q 1055 909 997 802 q 1149 1017 1113 1017 q 1227 988 1179 1017 l 1275 959 q 1324 946 1296 946 q 1356 949 1339 946 q 1324 849 1350 902 q 1265 791 1299 795 q 1257 791 1261 791 q 1172 819 1224 791 q 1126 833 1145 833 q 1094 812 1103 833 l 1076 772 q 1289 678 1289 732 l 1289 203 q 1424 68 1289 68 q 1560 203 1560 68 l 1560 640 q 1458 733 1560 711 q 1530 909 1472 802 q 1624 1017 1588 1017 q 1702 988 1654 1017 l 1750 959 q 1799 946 1771 946 q 1831 949 1814 946 q 1799 849 1824 902 q 1740 791 1773 795 q 1731 791 1736 791 q 1647 819 1699 791 q 1601 833 1619 833 q 1569 812 1578 833 l 1550 772 q 1763 678 1763 732 l 1763 203 q 1424 0 1763 0 q 1187 41 1271 0 q 949 0 1103 0 q 610 203 610 0 l 610 814 q 475 949 610 949 q 339 814 339 949 l 339 407 q 441 271 441 407 q 398 68 441 136 q 271 0 356 0 q 136 68 136 0 l 136 814 q 475 1017 136 1017 q 814 814 814 1017 l 814 203 q 949 68 814 68 q 1085 203 1085 68 l 1085 640 z "},"ញ":{"ha":1424,"x_min":136,"x_max":1289,"o":"m 1042 -136 q 1063 -85 1042 -102 q 1165 -68 1086 -68 q 1257 -102 1226 -68 q 1289 -203 1289 -136 q 1212 -332 1289 -278 q 1008 -387 1136 -387 q 803 -361 880 -387 q 565 -242 726 -336 q 347 -149 404 -149 q 239 -168 288 -149 q 136 -231 189 -186 q 162 -158 136 -190 q 250 -97 189 -125 q 390 -68 310 -68 q 597 -100 505 -68 q 785 -197 689 -132 q 1012 -316 966 -316 q 1077 -294 1042 -316 q 1111 -203 1111 -271 l 1111 -185 q 1090 -187 1099 -187 q 1070 -183 1078 -187 q 1049 -163 1057 -176 q 1042 -136 1042 -150 m 339 136 q 373 271 373 136 q 339 312 373 312 q 305 267 305 312 l 305 186 q 339 136 305 136 m 759 937 q 817 980 782 962 q 970 1017 890 1017 q 1289 814 1289 1017 l 1289 0 l 1085 0 l 1085 814 q 970 949 1085 949 q 855 913 897 949 q 814 814 814 878 l 814 0 l 610 0 l 610 814 q 580 887 610 887 q 475 814 549 887 q 370 887 401 887 q 339 814 339 887 l 339 407 q 441 271 441 407 q 398 68 441 136 q 271 0 356 0 q 136 68 136 0 l 136 814 q 214 957 136 897 q 332 1017 292 1017 q 475 926 366 1017 q 618 1017 585 1017 q 736 957 659 1017 q 759 937 748 947 z "},"ដ":{"ha":949,"x_min":136,"x_max":814,"o":"m 277 891 q 296 857 277 871 l 313 857 q 349 891 349 857 q 340 916 349 907 q 313 925 331 925 q 286 916 295 925 q 277 891 277 908 m 397 828 q 438 825 416 826 q 498 823 467 823 q 586 852 562 823 q 610 947 610 882 q 563 1017 610 1017 q 509 1085 509 1017 q 576 1153 509 1153 q 814 947 814 1153 q 718 803 814 860 q 430 746 622 746 q 218 780 300 746 q 136 888 136 814 q 171 981 136 945 q 302 1017 207 1017 q 398 988 363 1017 q 433 908 433 959 q 397 828 433 857 m 610 130 l 610 678 l 814 678 l 814 68 q 712 0 814 0 q 602 43 644 0 l 475 170 l 348 43 q 237 0 305 0 q 136 68 136 0 l 136 678 l 339 678 l 339 130 l 427 218 q 475 241 451 241 q 523 218 499 241 l 610 130 z "},"ឋ":{"ha":949,"x_min":47,"x_max":882,"o":"m 142 888 q 115 814 115 888 q 142 760 115 760 q 170 831 170 760 q 142 888 170 888 m 339 203 q 475 68 339 68 q 610 203 610 68 l 610 640 q 509 733 610 711 q 580 909 522 802 q 682 1017 638 1017 q 765 975 715 1017 q 787 964 778 964 q 800 970 795 964 q 814 1017 814 983 q 753 1051 814 1051 q 678 1153 678 1051 q 753 1221 678 1221 q 882 1017 882 1221 l 880 1017 l 880 1009 q 851 849 880 918 q 781 780 821 780 q 688 816 740 780 q 647 832 664 832 q 619 812 629 832 l 601 772 q 814 678 814 732 l 814 203 q 475 0 814 0 q 136 203 136 0 l 136 678 q 47 814 47 678 q 92 960 47 902 q 203 1017 136 1017 q 339 949 339 1017 l 339 203 z "},"ឌ":{"ha":949,"x_min":136,"x_max":814,"o":"m 339 695 l 339 644 q 363 678 363 644 q 339 695 363 695 m 339 763 q 406 742 381 763 q 431 678 431 720 q 331 576 431 576 q 136 644 136 576 l 136 814 q 214 957 136 897 q 332 1017 292 1017 q 475 926 366 1017 q 618 1017 585 1017 q 736 957 659 1017 q 814 814 814 897 l 814 712 q 458 425 814 583 l 339 372 l 339 203 q 400 68 339 68 q 610 223 515 68 l 610 380 l 814 448 l 814 0 q 678 -115 814 -115 q 576 -47 576 -115 q 610 0 610 -47 l 610 96 q 400 0 542 0 q 136 203 136 0 l 136 385 l 373 491 q 610 712 610 597 l 610 814 q 580 887 610 887 q 475 814 549 887 q 370 887 401 887 q 339 814 339 887 l 339 763 z "},"ឍ":{"ha":1424,"x_min":136,"x_max":1356,"o":"m 339 136 q 373 271 373 136 q 339 312 373 312 q 305 267 305 312 l 305 186 q 339 136 305 136 m 610 814 q 580 887 610 887 q 475 814 549 887 q 370 887 401 887 q 339 814 339 887 l 339 407 q 441 271 441 407 q 398 68 441 136 q 271 0 356 0 q 136 68 136 0 l 136 814 q 214 957 136 897 q 332 1017 292 1017 q 475 926 366 1017 q 618 1017 585 1017 q 736 957 659 1017 q 814 814 814 897 l 814 339 q 983 170 983 339 q 1051 68 983 68 q 1085 170 1085 68 l 1085 640 q 983 733 1085 711 q 1055 909 997 802 q 1149 1017 1113 1017 q 1227 988 1179 1017 l 1275 959 q 1324 946 1296 946 q 1356 949 1339 946 q 1324 849 1350 902 q 1265 791 1299 795 q 1257 791 1261 791 q 1172 819 1224 791 q 1126 833 1145 833 q 1094 812 1103 833 l 1076 772 q 1289 678 1289 732 l 1289 170 q 1051 0 1289 0 q 882 170 882 0 q 814 271 882 271 l 814 68 q 678 0 814 0 q 576 64 610 0 q 543 203 543 129 q 610 339 543 339 l 610 814 z "},"ណ":{"ha":1899,"x_min":136,"x_max":1763,"o":"m 339 136 q 373 271 373 136 q 339 326 373 326 q 305 260 305 326 l 305 193 q 339 136 305 136 m 610 814 q 475 949 610 949 q 339 814 339 949 l 339 407 q 441 271 441 407 q 398 68 441 136 q 271 0 356 0 q 136 68 136 0 l 136 814 q 475 1017 136 1017 q 814 814 814 1017 l 814 130 l 902 218 q 949 241 926 241 q 998 218 974 241 l 1085 130 l 1085 814 q 1424 1017 1085 1017 q 1763 814 1763 1017 l 1763 0 l 1560 0 l 1560 814 q 1424 949 1560 949 q 1289 814 1289 949 l 1289 68 q 1187 0 1289 0 q 1077 43 1119 0 l 949 170 l 823 43 q 712 0 780 0 q 610 68 610 0 l 610 814 z "},"ត":{"ha":949,"x_min":102,"x_max":848,"o":"m 312 186 q 339 129 312 129 q 366 203 366 129 q 339 251 366 251 q 312 186 312 251 m 102 764 l 102 815 q 145 892 102 850 l 189 933 q 298 1017 276 1017 q 394 941 322 1017 l 430 903 q 468 884 448 884 q 502 903 485 884 l 535 941 q 627 1017 603 1017 q 688 975 650 1017 l 766 890 q 814 865 790 865 q 848 878 831 865 q 758 744 801 744 q 661 792 713 744 q 588 840 610 840 q 520 792 559 840 q 448 744 481 744 q 342 792 400 744 q 260 840 285 840 q 216 825 231 840 q 201 785 201 810 q 293 718 201 765 l 207 656 q 102 764 102 697 m 339 339 q 434 203 434 339 q 395 58 434 115 q 271 0 356 0 q 136 68 136 0 l 136 509 q 475 712 136 712 q 814 509 814 712 l 814 0 l 610 0 l 610 509 q 475 644 610 644 q 339 509 339 644 l 339 339 z "},"ថ":{"ha":949,"x_min":68,"x_max":814,"o":"m 610 543 q 627 515 610 515 q 644 557 644 515 q 627 591 644 591 q 610 543 610 591 m 136 685 q 78 747 87 730 q 68 790 68 764 q 78 833 68 815 q 166 934 87 850 q 304 1017 245 1017 q 498 932 370 1017 q 665 848 627 848 q 726 895 726 848 q 702 956 726 929 q 637 983 678 983 q 549 1068 549 983 q 637 1153 549 1153 q 763 1092 712 1153 q 814 929 814 1031 q 759 795 814 846 q 610 743 705 743 q 357 797 443 743 q 252 851 272 851 q 248 850 250 851 q 216 831 229 847 q 203 792 203 814 q 339 706 203 769 l 339 203 q 475 68 339 68 q 610 203 610 68 l 610 441 q 543 543 543 441 q 678 678 543 678 q 814 610 814 678 l 814 203 q 475 0 814 0 q 136 203 136 0 l 136 685 z "},"ទ":{"ha":949,"x_min":136,"x_max":814,"o":"m 712 205 q 469 0 712 0 q 203 170 203 0 l 203 339 l 407 305 l 407 170 q 469 68 407 68 q 509 204 509 68 l 509 393 l 475 393 q 136 597 136 393 l 136 814 q 475 1017 136 1017 q 814 814 814 1017 l 814 712 q 659 644 814 644 q 518 732 518 644 q 543 796 518 774 q 610 817 568 817 q 475 949 610 949 q 339 814 339 949 l 339 597 q 475 461 339 461 l 509 461 q 695 563 509 563 q 780 478 780 563 q 712 393 780 393 l 712 205 z "},"ធ":{"ha":949,"x_min":88,"x_max":848,"o":"m 610 543 q 627 515 610 515 q 644 557 644 515 q 627 591 644 591 q 610 543 610 591 m 136 690 q 88 764 102 720 l 88 815 q 145 892 102 850 l 189 933 q 298 1017 276 1017 q 394 941 322 1017 l 430 903 q 468 884 448 884 q 502 903 485 884 l 535 941 q 627 1017 603 1017 q 688 975 650 1017 l 766 890 q 814 865 790 865 q 848 878 831 865 q 758 744 801 744 q 661 792 713 744 q 588 840 610 840 q 520 792 559 840 q 448 744 481 744 q 342 792 400 744 q 260 840 285 840 q 227 825 238 840 q 215 785 215 810 q 257 732 215 765 q 339 699 300 699 l 339 130 l 427 218 q 475 241 451 241 q 523 218 499 241 l 610 130 l 610 441 q 543 543 543 441 q 678 678 543 678 q 814 610 814 678 l 814 68 q 712 0 814 0 q 602 43 644 0 l 475 170 l 348 43 q 237 0 305 0 q 136 68 136 0 l 136 690 z "},"ន":{"ha":949,"x_min":136,"x_max":814,"o":"m 814 170 q 607 0 814 0 q 427 102 484 0 q 339 203 370 203 l 339 68 q 237 0 339 0 q 136 68 136 0 l 136 456 l 339 395 l 339 271 q 454 186 390 271 q 559 102 518 102 q 610 170 610 102 l 610 372 l 373 477 q 136 712 136 583 l 136 814 q 475 1017 136 1017 q 814 814 814 1017 l 814 644 q 659 576 814 576 q 518 678 518 576 q 543 742 518 720 q 610 763 568 763 l 610 814 q 475 949 610 949 q 339 814 339 949 l 339 712 q 576 491 339 597 l 814 385 l 814 170 z "},"ប":{"ha":949,"x_min":34,"x_max":882,"o":"m 610 640 q 509 733 610 711 q 580 909 522 802 q 675 1017 638 1017 q 753 988 705 1017 l 800 959 q 850 946 821 946 q 882 949 865 946 q 849 849 875 902 q 791 791 824 795 q 782 791 787 791 q 697 819 749 791 q 652 833 670 833 q 619 812 629 833 l 601 772 q 814 678 814 732 l 814 203 q 475 0 814 0 q 136 203 136 0 l 136 640 q 34 733 136 711 q 105 909 47 802 q 200 1017 163 1017 q 278 988 230 1017 l 326 959 q 375 946 347 946 q 407 949 390 946 q 375 849 400 902 q 316 791 349 795 q 307 791 312 791 q 222 819 275 791 q 177 833 195 833 q 144 812 154 833 l 126 772 q 339 678 339 732 l 339 203 q 475 68 339 68 q 610 203 610 68 l 610 640 z "},"ផ":{"ha":949,"x_min":68,"x_max":814,"o":"m 610 543 q 627 515 610 515 q 644 557 644 515 q 627 591 644 591 q 610 543 610 591 m 610 441 q 543 543 543 441 q 678 678 543 678 q 814 610 814 678 l 814 68 q 712 0 814 0 q 602 43 644 0 l 475 170 l 348 43 q 237 0 305 0 q 136 68 136 0 l 136 685 q 78 747 87 730 q 68 790 68 764 q 78 833 68 815 q 166 934 87 850 q 304 1017 245 1017 q 498 932 370 1017 q 665 848 627 848 q 726 895 726 848 q 702 956 726 929 q 637 983 678 983 q 549 1068 549 983 q 637 1153 549 1153 q 763 1092 712 1153 q 814 929 814 1031 q 759 795 814 846 q 610 743 705 743 q 357 797 443 743 q 252 851 272 851 q 248 850 250 851 q 216 831 229 847 q 203 792 203 814 q 339 706 203 769 l 339 130 l 427 218 q 475 241 451 241 q 523 218 499 241 l 610 130 l 610 441 z "},"ព":{"ha":949,"x_min":136,"x_max":814,"o":"m 305 186 q 339 136 305 136 q 373 271 373 136 q 339 312 373 312 q 305 267 305 312 l 305 186 m 136 814 q 214 957 136 897 q 332 1017 292 1017 q 475 926 366 1017 q 618 1017 585 1017 q 736 957 659 1017 q 814 814 814 897 l 814 0 l 610 0 l 610 814 q 580 887 610 887 q 475 814 549 887 q 370 887 401 887 q 339 814 339 887 l 339 407 q 441 271 441 407 q 398 68 441 136 q 271 0 356 0 q 136 68 136 0 l 136 814 z "},"ភ":{"ha":949,"x_min":47,"x_max":848,"o":"m 163 186 q 139 258 163 258 q 115 203 115 258 q 139 136 115 136 q 163 186 163 136 m 102 764 l 102 815 q 145 892 102 850 l 189 933 q 298 1017 276 1017 q 394 941 322 1017 l 430 903 q 468 884 448 884 q 502 903 485 884 l 535 941 q 627 1017 603 1017 q 688 975 650 1017 l 766 890 q 814 865 790 865 q 848 878 831 865 q 758 744 801 744 q 661 792 713 744 q 588 840 610 840 q 520 792 559 840 q 448 744 481 744 q 342 792 400 744 q 260 840 285 840 q 216 825 231 840 q 201 785 201 810 q 293 718 201 765 l 207 656 q 102 764 102 697 m 136 509 q 475 712 136 712 q 814 509 814 712 l 814 0 l 610 0 l 610 509 q 475 644 610 644 q 339 509 339 644 l 339 68 q 203 0 339 0 q 83 68 119 0 q 47 203 47 136 q 136 339 47 339 l 136 509 z "},"ម":{"ha":949,"x_min":34,"x_max":882,"o":"m 610 522 l 610 640 q 509 733 610 711 q 580 909 522 802 q 675 1017 638 1017 q 753 988 705 1017 l 800 959 q 850 946 821 946 q 882 949 865 946 q 849 849 875 902 q 791 791 824 795 q 782 791 787 791 q 697 819 749 791 q 652 833 670 833 q 619 812 629 833 l 601 772 q 814 678 814 732 l 814 203 q 475 0 814 0 q 136 203 136 0 l 136 640 q 34 733 136 711 q 105 909 47 802 q 200 1017 163 1017 q 278 988 230 1017 l 326 959 q 375 946 347 946 q 407 949 390 946 q 375 849 400 902 q 316 791 349 795 q 307 791 312 791 q 222 819 275 791 q 177 833 195 833 q 144 812 154 833 l 126 772 q 339 678 339 732 l 339 522 l 610 522 m 610 454 l 339 454 l 339 203 q 475 68 339 68 q 610 203 610 68 l 610 454 z "},"យ":{"ha":1424,"x_min":136,"x_max":1356,"o":"m 312 831 q 339 766 312 766 q 366 827 366 766 q 339 895 366 895 q 312 831 312 895 m 136 949 q 271 1017 136 1017 q 398 966 363 1017 q 434 827 434 916 q 339 678 434 678 l 339 203 q 475 68 339 68 q 610 203 610 68 l 610 640 q 509 733 610 711 q 580 909 522 802 q 675 1017 638 1017 q 753 988 705 1017 l 800 959 q 850 946 821 946 q 882 949 865 946 q 849 849 875 902 q 791 791 824 795 q 782 791 787 791 q 697 819 749 791 q 652 833 670 833 q 619 812 629 833 l 601 772 q 814 678 814 732 l 814 203 q 949 68 814 68 q 1085 203 1085 68 l 1085 640 q 983 733 1085 711 q 1055 909 997 802 q 1149 1017 1113 1017 q 1227 988 1179 1017 l 1275 959 q 1324 946 1296 946 q 1356 949 1339 946 q 1324 849 1350 902 q 1265 791 1299 795 q 1257 791 1261 791 q 1172 819 1224 791 q 1126 833 1145 833 q 1094 812 1103 833 l 1076 772 q 1289 678 1289 732 l 1289 203 q 949 0 1289 0 q 712 57 788 0 q 475 0 636 0 q 136 203 136 0 l 136 949 z "},"រ":{"ha":475,"x_min":34,"x_max":407,"o":"m 142 264 q 115 203 115 264 q 142 136 115 136 q 170 186 170 136 q 142 264 170 264 m 339 68 q 203 0 339 0 q 83 68 119 0 q 47 203 47 136 q 136 339 47 339 l 136 640 q 34 733 136 711 q 105 909 47 802 q 200 1017 163 1017 q 278 988 230 1017 l 326 959 q 375 946 347 946 q 407 949 390 946 q 375 849 400 902 q 316 791 349 795 q 307 791 312 791 q 222 819 275 791 q 177 833 195 833 q 144 812 154 833 l 126 772 q 339 678 339 732 l 339 68 z "},"ល":{"ha":1424,"x_min":136,"x_max":1356,"o":"m 339 136 q 373 271 373 136 q 339 326 373 326 q 305 260 305 326 l 305 193 q 339 136 305 136 m 1289 203 q 949 0 1289 0 q 610 203 610 0 l 610 814 q 475 949 610 949 q 339 814 339 949 l 339 407 q 441 271 441 407 q 398 68 441 136 q 271 0 356 0 q 136 68 136 0 l 136 814 q 475 1017 136 1017 q 814 814 814 1017 l 814 203 q 949 68 814 68 q 1085 203 1085 68 l 1085 640 q 983 733 1085 711 q 1055 909 997 802 q 1149 1017 1113 1017 q 1227 988 1179 1017 l 1275 959 q 1324 946 1296 946 q 1356 949 1339 946 q 1324 849 1350 902 q 1265 791 1299 795 q 1257 791 1261 791 q 1172 819 1224 791 q 1126 833 1145 833 q 1094 812 1103 833 l 1076 772 q 1289 678 1289 732 l 1289 203 z "},"វ":{"ha":475,"x_min":34,"x_max":407,"o":"m 170 186 q 142 264 170 264 q 115 203 115 264 q 142 136 115 136 q 170 186 170 136 m 339 68 q 203 0 339 0 q 83 68 119 0 q 47 203 47 136 q 136 339 47 339 l 136 640 q 34 733 136 711 q 105 909 47 802 q 207 1017 163 1017 q 290 975 241 1017 q 313 964 303 964 q 326 970 320 964 q 339 1017 339 983 q 278 1051 339 1051 q 203 1153 203 1051 q 278 1221 203 1221 q 407 1017 407 1221 l 406 1017 l 406 1009 q 376 849 406 918 q 306 780 347 780 q 214 816 265 780 q 172 832 189 832 q 144 812 154 832 l 126 772 q 339 678 339 732 l 339 68 z "},"ឝ":{"ha":949,"x_min":102,"x_max":882,"o":"m 102 764 l 102 815 q 145 892 102 850 l 189 933 q 298 1017 276 1017 q 394 941 322 1017 l 430 903 q 468 884 448 884 q 502 903 485 884 l 535 941 q 627 1017 603 1017 q 688 975 650 1017 l 766 890 q 814 865 790 865 q 848 878 831 865 q 758 744 801 744 q 661 792 713 744 q 588 840 610 840 q 520 792 559 840 q 448 744 481 744 q 342 792 400 744 q 260 840 285 840 q 216 825 231 840 q 201 785 201 810 q 293 718 201 765 l 207 656 q 102 764 102 697 m 814 339 l 882 339 l 882 271 l 814 271 l 814 0 l 610 0 l 610 271 l 563 271 l 563 339 l 610 339 l 610 509 q 475 644 610 644 q 339 509 339 644 l 339 254 q 449 339 389 339 q 543 240 543 339 q 490 174 543 174 q 452 201 452 174 q 435 229 452 229 q 385 160 419 229 l 352 93 l 339 67 l 339 0 l 136 0 l 136 509 q 475 712 136 712 q 814 509 814 712 l 814 339 z "},"ឞ":{"ha":949,"x_min":34,"x_max":882,"o":"m 610 475 l 543 475 l 543 543 l 610 543 l 610 640 q 509 733 610 711 q 580 909 522 802 q 675 1017 638 1017 q 753 988 705 1017 l 800 959 q 850 946 821 946 q 882 949 865 946 q 849 849 875 902 q 791 791 824 795 q 782 791 787 791 q 697 819 749 791 q 652 833 670 833 q 619 812 629 833 l 601 772 q 814 678 814 732 l 814 543 l 882 543 l 882 475 l 814 475 l 814 203 q 475 0 814 0 q 136 203 136 0 l 136 640 q 34 733 136 711 q 105 909 47 802 q 200 1017 163 1017 q 278 988 230 1017 l 326 959 q 375 946 347 946 q 407 949 390 946 q 375 849 400 902 q 316 791 349 795 q 307 791 312 791 q 222 819 275 791 q 177 833 195 833 q 144 812 154 833 l 126 772 q 339 678 339 732 l 339 203 q 475 68 339 68 q 610 203 610 68 l 610 475 z "},"ស":{"ha":1424,"x_min":136,"x_max":1356,"o":"m 339 129 q 366 203 366 129 q 339 251 366 251 q 312 186 312 251 q 339 129 312 129 m 136 509 q 344 703 136 668 q 193 768 313 740 q 296 938 219 854 q 412 1017 369 1017 l 416 1017 q 505 979 452 1013 l 557 943 q 615 925 581 928 q 637 924 625 924 q 652 924 644 924 q 604 828 640 878 q 530 778 569 778 q 519 779 524 778 q 418 818 480 783 q 363 838 387 835 l 357 838 q 319 820 334 838 l 306 795 q 489 712 465 740 q 814 509 814 707 l 814 203 q 949 68 814 68 q 1085 203 1085 68 l 1085 640 q 983 733 1085 711 q 1055 909 997 802 q 1149 1017 1113 1017 q 1227 988 1179 1017 l 1275 959 q 1324 946 1296 946 q 1356 949 1339 946 q 1324 849 1350 902 q 1265 791 1299 795 q 1257 791 1261 791 q 1172 819 1224 791 q 1126 833 1145 833 q 1094 812 1103 833 l 1076 772 q 1289 678 1289 732 l 1289 203 q 949 0 1289 0 q 610 203 610 0 l 610 509 q 475 644 610 644 q 339 509 339 644 l 339 339 q 434 203 434 339 q 395 58 434 115 q 271 0 356 0 q 136 68 136 0 l 136 509 z "},"ហ":{"ha":1424,"x_min":34,"x_max":1289,"o":"m 814 203 q 475 0 814 0 q 136 203 136 0 l 136 640 q 34 733 136 711 q 105 909 47 802 q 200 1017 163 1017 q 278 988 230 1017 l 326 959 q 375 946 347 946 q 407 949 390 946 q 375 849 400 902 q 316 791 349 795 q 307 791 312 791 q 222 819 275 791 q 177 833 195 833 q 144 812 154 833 l 126 772 q 339 678 339 732 l 339 203 q 475 68 339 68 q 610 203 610 68 l 610 814 q 949 1017 610 1017 q 1289 814 1289 1017 l 1289 0 l 1085 0 l 1085 814 q 949 949 1085 949 q 814 814 814 949 l 814 203 z "},"ឡ":{"ha":1424,"x_min":136,"x_max":1356,"o":"m 712 205 q 469 0 712 0 q 203 170 203 0 l 203 339 l 407 305 l 407 170 q 469 68 407 68 q 509 204 509 68 l 509 393 l 475 393 q 136 597 136 393 l 136 814 q 475 1017 136 1017 q 814 814 814 1017 l 814 712 q 659 644 814 644 q 518 732 518 644 q 543 796 518 774 q 610 817 568 817 q 475 949 610 949 q 339 814 339 949 l 339 597 q 475 461 339 461 l 509 461 q 695 563 509 563 q 780 478 780 563 q 712 393 780 393 l 712 205 m 1289 -373 q 1187 -441 1289 -441 q 1077 -398 1119 -441 l 949 -271 l 823 -398 q 712 -441 780 -441 q 610 -373 610 -441 l 610 -237 q 543 -190 543 -237 q 607 -110 543 -153 q 712 -68 671 -68 q 814 -136 814 -68 l 814 -311 l 902 -223 q 949 -199 926 -199 q 998 -223 974 -199 l 1085 -311 l 1085 640 q 983 733 1085 711 q 1055 909 997 802 q 1149 1017 1113 1017 q 1227 988 1179 1017 l 1275 959 q 1324 946 1296 946 q 1356 949 1339 946 q 1324 849 1350 902 q 1265 791 1299 795 q 1257 791 1261 791 q 1172 819 1224 791 q 1126 833 1145 833 q 1094 812 1103 833 l 1076 772 q 1289 678 1289 732 l 1289 -373 z "},"អ":{"ha":949,"x_min":34,"x_max":882,"o":"m 617 264 q 590 203 590 264 q 617 136 590 136 q 644 186 644 136 q 617 264 644 264 m 142 264 q 115 203 115 264 q 142 136 115 136 q 170 186 170 136 q 142 264 170 264 m 610 543 l 610 640 q 509 733 610 711 q 580 909 522 802 q 675 1017 638 1017 q 753 988 705 1017 l 800 959 q 850 946 821 946 q 882 949 865 946 q 849 849 875 902 q 791 791 824 795 q 782 791 787 791 q 697 819 749 791 q 652 833 670 833 q 619 812 629 833 l 601 772 q 814 678 814 732 l 814 68 q 678 0 814 0 q 558 68 593 0 q 522 203 522 136 q 610 339 522 339 l 610 475 l 339 475 l 339 68 q 203 0 339 0 q 83 68 119 0 q 47 203 47 136 q 136 339 47 339 l 136 640 q 34 733 136 711 q 105 909 47 802 q 200 1017 163 1017 q 278 988 230 1017 l 326 959 q 375 946 347 946 q 407 949 390 946 q 375 849 400 902 q 316 791 349 795 q 307 791 312 791 q 222 819 275 791 q 177 833 195 833 q 144 812 154 833 l 126 772 q 339 678 339 732 l 339 543 l 610 543 z "},"ឣ":{"ha":949,"x_min":34,"x_max":882,"o":"m 617 264 q 590 203 590 264 q 617 136 590 136 q 644 186 644 136 q 617 264 644 264 m 142 264 q 115 203 115 264 q 142 136 115 136 q 170 186 170 136 q 142 264 170 264 m 610 543 l 610 640 q 509 733 610 711 q 580 909 522 802 q 675 1017 638 1017 q 753 988 705 1017 l 800 959 q 850 946 821 946 q 882 949 865 946 q 849 849 875 902 q 791 791 824 795 q 782 791 787 791 q 697 819 749 791 q 652 833 670 833 q 619 812 629 833 l 601 772 q 814 678 814 732 l 814 68 q 678 0 814 0 q 558 68 593 0 q 522 203 522 136 q 610 339 522 339 l 610 475 l 339 475 l 339 68 q 203 0 339 0 q 83 68 119 0 q 47 203 47 136 q 136 339 47 339 l 136 640 q 34 733 136 711 q 105 909 47 802 q 200 1017 163 1017 q 278 988 230 1017 l 326 959 q 375 946 347 946 q 407 949 390 946 q 375 849 400 902 q 316 791 349 795 q 307 791 312 791 q 222 819 275 791 q 177 833 195 833 q 144 812 154 833 l 126 772 q 339 678 339 732 l 339 543 l 610 543 z "},"ឤ":{"ha":1424,"x_min":34,"x_max":1289,"o":"m 617 264 q 590 203 590 264 q 617 136 590 136 q 644 186 644 136 q 617 264 644 264 m 142 264 q 115 203 115 264 q 142 136 115 136 q 170 186 170 136 q 142 264 170 264 m 610 640 q 509 733 610 711 q 619 909 530 802 q 766 1017 709 1017 q 1069 938 849 1017 q 1289 699 1289 859 l 1289 0 l 1085 0 l 1085 699 q 1032 774 1085 753 l 898 820 q 753 853 813 853 q 665 812 694 853 l 637 772 q 814 678 814 732 l 814 68 q 678 0 814 0 q 558 68 593 0 q 522 203 522 136 q 610 339 522 339 l 610 475 l 339 475 l 339 68 q 203 0 339 0 q 83 68 119 0 q 47 203 47 136 q 136 339 47 339 l 136 640 q 34 733 136 711 q 105 909 47 802 q 200 1017 163 1017 q 278 988 230 1017 l 326 959 q 375 946 347 946 q 407 949 390 946 q 375 849 400 902 q 316 791 349 795 q 307 791 312 791 q 222 819 275 791 q 177 833 195 833 q 144 812 154 833 l 126 772 q 339 678 339 732 l 339 543 l 610 543 l 610 640 z "},"ឥ":{"ha":949,"x_min":68,"x_max":814,"o":"m 312 186 q 339 129 312 129 q 366 203 366 129 q 339 251 366 251 q 312 186 312 251 m 339 339 q 434 203 434 339 q 395 58 434 115 q 271 0 356 0 q 136 68 136 0 l 136 509 q 475 712 136 712 q 814 509 814 712 l 814 0 l 610 0 l 610 509 q 475 644 610 644 q 339 509 339 644 l 339 339 m 170 661 q 78 747 87 730 q 68 790 68 764 q 78 833 68 815 q 166 934 87 850 q 304 1017 245 1017 q 498 932 370 1017 q 665 848 627 848 q 726 895 726 848 q 702 956 726 929 q 637 983 678 983 q 549 1068 549 983 q 637 1153 549 1153 q 763 1092 712 1153 q 814 929 814 1031 q 759 795 814 846 q 610 743 705 743 q 357 797 443 743 q 252 851 272 851 q 248 850 250 851 q 216 831 229 847 q 203 792 203 814 q 305 720 203 769 l 170 661 z "},"ឦ":{"ha":1424,"x_min":136,"x_max":1356,"o":"m 339 136 q 373 271 373 136 q 339 326 373 326 q 305 260 305 326 l 305 193 q 339 136 305 136 m 339 -351 q 373 -304 373 -321 q 339 -285 373 -285 l 339 -351 m 610 814 q 475 949 610 949 q 339 814 339 949 l 339 407 q 441 271 441 407 q 398 68 441 136 q 271 0 356 0 q 136 68 136 0 l 136 814 q 475 1017 136 1017 q 814 814 814 1017 l 814 0 l 610 0 l 610 814 m 1289 -305 q 941 -441 1289 -441 q 610 -305 610 -441 l 610 -192 q 475 -130 610 -130 q 339 -192 339 -130 l 339 -223 q 441 -304 441 -223 q 390 -394 441 -347 q 271 -441 339 -441 q 170 -350 170 -441 l 170 -192 q 475 -68 170 -68 q 780 -192 780 -68 l 780 -305 q 941 -373 780 -373 q 1085 -305 1085 -373 l 1085 640 q 983 733 1085 711 q 1055 909 997 802 q 1156 1017 1113 1017 q 1240 975 1190 1017 q 1262 964 1253 964 q 1275 970 1270 964 q 1289 1017 1289 983 q 1227 1051 1289 1051 q 1153 1153 1153 1051 q 1227 1221 1153 1221 q 1356 1017 1356 1221 l 1355 1017 l 1355 1009 q 1325 849 1355 918 q 1255 780 1296 780 q 1163 816 1215 780 q 1122 832 1139 832 q 1094 812 1103 832 l 1076 772 q 1289 678 1289 732 l 1289 -305 z "},"ឧ":{"ha":949,"x_min":136,"x_max":814,"o":"m 339 695 l 339 644 q 363 678 363 644 q 339 695 363 695 m 814 712 q 458 425 814 583 l 339 372 l 339 203 q 400 68 339 68 q 610 223 515 68 l 610 380 l 814 448 l 814 0 q 678 -115 814 -115 q 576 -47 576 -115 q 610 0 610 -47 l 610 96 q 400 0 542 0 q 136 203 136 0 l 136 385 l 373 491 q 610 712 610 597 l 610 814 q 475 949 610 949 q 339 814 339 949 l 339 763 q 406 742 381 763 q 431 678 431 720 q 331 576 431 576 q 136 644 136 576 l 136 814 q 475 1017 136 1017 q 814 814 814 1017 l 814 712 z "},"ឨ":{"ha":949,"x_min":102,"x_max":848,"o":"m 339 695 l 339 644 q 363 678 363 644 q 339 695 363 695 m 814 712 q 458 425 814 583 l 339 372 l 339 203 q 400 68 339 68 q 610 223 515 68 l 610 380 l 814 448 l 814 0 q 678 -115 814 -115 q 576 -47 576 -115 q 610 0 610 -47 l 610 96 q 400 0 542 0 q 136 203 136 0 l 136 385 l 373 491 q 610 712 610 597 l 610 814 q 475 949 610 949 q 339 814 339 949 l 339 763 q 406 742 381 763 q 431 678 431 720 q 331 576 431 576 q 136 644 136 576 l 136 814 q 475 1017 136 1017 q 814 814 814 1017 l 814 712 m 102 1075 l 102 1126 q 145 1202 102 1161 l 189 1244 q 298 1328 276 1328 q 394 1252 322 1328 l 430 1214 q 468 1194 448 1194 q 502 1214 485 1194 l 535 1252 q 627 1328 603 1328 q 688 1286 650 1328 l 766 1201 q 814 1176 790 1176 q 848 1188 831 1176 q 758 1055 801 1055 q 661 1102 713 1055 q 588 1150 610 1150 q 520 1102 559 1150 q 448 1055 481 1055 q 342 1102 400 1055 q 260 1150 285 1150 q 216 1135 231 1150 q 201 1096 201 1120 q 293 1028 201 1076 l 207 966 q 102 1075 102 1008 z "},"ឩ":{"ha":1017,"x_min":136,"x_max":1017,"o":"m 890 395 l 1017 456 l 1017 0 q 954 -68 1017 -68 q 890 0 890 -68 l 890 395 m 339 695 l 339 644 q 363 678 363 644 q 339 695 363 695 m 814 712 q 458 425 814 583 l 339 372 l 339 203 q 400 68 339 68 q 610 223 515 68 l 610 380 l 814 448 l 814 0 q 678 -115 814 -115 q 576 -47 576 -115 q 610 0 610 -47 l 610 96 q 400 0 542 0 q 136 203 136 0 l 136 385 l 373 491 q 610 712 610 597 l 610 814 q 475 949 610 949 q 339 814 339 949 l 339 763 q 406 742 381 763 q 431 678 431 720 q 331 576 431 576 q 136 644 136 576 l 136 814 q 475 1017 136 1017 q 814 814 814 1017 l 814 712 z "},"ឪ":{"ha":949,"x_min":68,"x_max":814,"o":"m 339 695 l 339 644 q 363 678 363 644 q 339 695 363 695 m 814 712 q 458 425 814 583 l 339 372 l 339 203 q 400 68 339 68 q 610 223 515 68 l 610 380 l 814 448 l 814 0 q 678 -115 814 -115 q 576 -47 576 -115 q 610 0 610 -47 l 610 96 q 400 0 542 0 q 136 203 136 0 l 136 385 l 373 491 q 610 712 610 597 l 610 814 q 475 949 610 949 q 339 814 339 949 l 339 763 q 406 742 381 763 q 431 678 431 720 q 331 576 431 576 q 136 644 136 576 l 136 814 q 475 1017 136 1017 q 814 814 814 1017 l 814 712 m 170 962 q 78 1048 87 1031 q 68 1091 68 1065 q 78 1134 68 1116 q 166 1235 87 1152 q 304 1318 245 1318 q 498 1234 370 1318 q 665 1149 627 1149 q 726 1196 726 1149 q 702 1257 726 1230 q 637 1284 678 1284 q 549 1369 549 1284 q 637 1454 549 1454 q 763 1393 712 1454 q 814 1230 814 1332 q 759 1096 814 1147 q 610 1044 705 1044 q 357 1098 443 1044 q 252 1152 272 1152 q 248 1152 250 1152 q 216 1132 229 1148 q 203 1093 203 1116 q 305 1021 203 1070 l 170 962 z "},"ឫ":{"ha":949,"x_min":34,"x_max":882,"o":"m 780 -170 q 675 -322 780 -271 q 361 -373 570 -373 q 182 -351 256 -373 q 68 -285 109 -329 q 361 -305 194 -305 q 553 -271 477 -305 q 627 -170 627 -237 q 615 -144 627 -153 q 577 -136 602 -136 q 598 -85 577 -102 q 679 -68 619 -68 q 759 -94 738 -68 q 780 -170 780 -119 m 610 640 q 509 733 610 711 q 580 909 522 802 q 675 1017 638 1017 q 753 988 705 1017 l 800 959 q 850 946 821 946 q 882 949 865 946 q 849 849 875 902 q 791 791 824 795 q 782 791 787 791 q 697 819 749 791 q 652 833 670 833 q 619 812 629 833 l 601 772 q 814 678 814 732 l 814 203 q 475 0 814 0 q 136 203 136 0 l 136 640 q 34 733 136 711 q 105 909 47 802 q 200 1017 163 1017 q 278 988 230 1017 l 326 959 q 375 946 347 946 q 407 949 390 946 q 375 849 400 902 q 316 791 349 795 q 307 791 312 791 q 222 819 275 791 q 177 833 195 833 q 144 812 154 833 l 126 772 q 339 678 339 732 l 339 203 q 475 68 339 68 q 610 203 610 68 l 610 640 z "},"ឬ":{"ha":949,"x_min":34,"x_max":882,"o":"m 780 -170 q 756 -254 780 -217 q 794 -293 763 -279 q 881 -306 825 -306 q 854 -356 881 -339 q 771 -373 826 -373 q 703 -362 732 -373 q 656 -330 674 -351 q 530 -362 604 -351 q 360 -373 456 -373 q 182 -351 256 -373 q 68 -285 109 -329 q 361 -305 193 -305 q 552 -271 477 -305 q 627 -170 627 -237 q 576 -136 627 -136 q 597 -85 576 -102 q 679 -68 619 -68 q 759 -94 738 -68 q 780 -170 780 -119 m 610 640 q 509 733 610 711 q 580 909 522 802 q 675 1017 638 1017 q 753 988 705 1017 l 800 959 q 850 946 821 946 q 882 949 865 946 q 849 849 875 902 q 791 791 824 795 q 782 791 787 791 q 697 819 749 791 q 652 833 670 833 q 619 812 629 833 l 601 772 q 814 678 814 732 l 814 203 q 475 0 814 0 q 136 203 136 0 l 136 640 q 34 733 136 711 q 105 909 47 802 q 200 1017 163 1017 q 278 988 230 1017 l 326 959 q 375 946 347 946 q 407 949 390 946 q 375 849 400 902 q 316 791 349 795 q 307 791 312 791 q 222 819 275 791 q 177 833 195 833 q 144 812 154 833 l 126 772 q 339 678 339 732 l 339 203 q 475 68 339 68 q 610 203 610 68 l 610 640 z "},"ឭ":{"ha":949,"x_min":68,"x_max":814,"o":"m 305 186 q 339 136 305 136 q 373 271 373 136 q 339 312 373 312 q 305 267 305 312 l 305 186 m 136 814 q 214 957 136 897 q 332 1017 292 1017 q 475 926 366 1017 q 618 1017 585 1017 q 736 957 659 1017 q 814 814 814 897 l 814 0 l 610 0 l 610 814 q 580 887 610 887 q 475 814 549 887 q 370 887 401 887 q 339 814 339 887 l 339 407 q 441 271 441 407 q 398 68 441 136 q 271 0 356 0 q 136 68 136 0 l 136 814 m 780 -170 q 675 -322 780 -271 q 361 -373 570 -373 q 182 -351 256 -373 q 68 -285 109 -329 q 361 -305 194 -305 q 553 -271 477 -305 q 627 -170 627 -237 q 615 -144 627 -153 q 577 -136 602 -136 q 598 -85 577 -102 q 679 -68 619 -68 q 759 -94 738 -68 q 780 -170 780 -119 z "},"ឮ":{"ha":949,"x_min":68,"x_max":881,"o":"m 305 186 q 339 136 305 136 q 373 271 373 136 q 339 312 373 312 q 305 267 305 312 l 305 186 m 136 814 q 214 957 136 897 q 332 1017 292 1017 q 475 926 366 1017 q 618 1017 585 1017 q 736 957 659 1017 q 814 814 814 897 l 814 0 l 610 0 l 610 814 q 580 887 610 887 q 475 814 549 887 q 370 887 401 887 q 339 814 339 887 l 339 407 q 441 271 441 407 q 398 68 441 136 q 271 0 356 0 q 136 68 136 0 l 136 814 m 780 -170 q 756 -254 780 -217 q 794 -293 763 -279 q 881 -306 825 -306 q 854 -356 881 -339 q 771 -373 826 -373 q 703 -362 732 -373 q 656 -330 674 -351 q 530 -362 604 -351 q 360 -373 456 -373 q 182 -351 256 -373 q 68 -285 109 -329 q 361 -305 193 -305 q 552 -271 477 -305 q 627 -170 627 -237 q 576 -136 627 -136 q 597 -85 576 -102 q 679 -68 619 -68 q 759 -94 738 -68 q 780 -170 780 -119 z "},"ឯ":{"ha":949,"x_min":68,"x_max":814,"o":"m 153 523 q 136 475 136 523 q 153 448 136 448 q 170 489 170 448 q 153 523 170 523 m 610 814 q 509 949 610 949 q 339 848 339 949 q 237 780 339 780 q 136 848 136 780 q 153 1012 136 966 q 170 1105 170 1058 q 102 1153 170 1153 q 203 1221 102 1221 q 373 1105 373 1221 q 356 1009 373 1048 q 342 960 346 986 q 509 1017 410 1017 q 814 814 814 1017 l 814 68 q 712 0 814 0 q 602 43 644 0 l 475 170 l 348 43 q 237 0 305 0 q 136 68 136 0 l 136 373 q 68 475 68 373 q 203 610 68 610 q 339 543 339 610 l 339 130 l 427 218 q 475 241 451 241 q 523 218 499 241 l 610 130 l 610 814 z "},"ឰ":{"ha":949,"x_min":136,"x_max":814,"o":"m 644 -101 q 502 -214 587 -168 l 566 -230 q 597 -234 584 -234 q 631 -219 623 -234 q 644 -126 644 -197 l 644 -101 m 339 136 q 373 271 373 136 q 339 312 373 312 q 305 267 305 312 l 305 186 q 339 136 305 136 m 407 -335 q 425 -282 425 -317 l 425 -249 q 295 -298 351 -286 l 295 -319 q 317 -345 295 -336 q 362 -353 338 -353 q 407 -335 389 -353 m 814 -126 q 752 -284 814 -244 q 629 -324 690 -324 q 565 -317 600 -324 l 513 -304 q 477 -407 513 -373 q 368 -441 441 -441 q 185 -415 235 -441 q 136 -339 136 -390 q 174 -226 136 -241 q 429 -148 328 -191 q 610 0 517 -111 l 610 814 q 580 887 610 887 q 475 814 549 887 q 370 887 401 887 q 339 814 339 887 l 339 407 q 441 271 441 407 q 398 68 441 136 q 271 0 356 0 q 136 68 136 0 l 136 814 q 214 957 136 897 q 332 1017 292 1017 q 475 926 366 1017 q 618 1017 585 1017 q 736 957 659 1017 q 814 814 814 897 l 814 -126 z "},"ឱ":{"ha":949,"x_min":122,"x_max":848,"o":"m 209 980 q 122 1075 122 1008 l 122 1126 q 166 1202 122 1161 l 211 1244 q 475 1328 307 1328 q 799 1201 677 1328 q 848 1093 848 1159 q 762 979 848 1027 q 764 996 764 987 q 691 1109 764 1046 q 475 1173 617 1173 q 245 1154 267 1173 q 224 1109 224 1134 q 317 1021 224 1076 l 209 980 m 339 695 l 339 644 q 363 678 363 644 q 339 695 363 695 m 814 712 q 458 425 814 583 l 339 372 l 339 203 q 400 68 339 68 q 610 223 515 68 l 610 380 l 814 448 l 814 0 q 678 -115 814 -115 q 576 -47 576 -115 q 610 0 610 -47 l 610 96 q 400 0 542 0 q 136 203 136 0 l 136 385 l 373 491 q 610 712 610 597 l 610 814 q 475 949 610 949 q 339 814 339 949 l 339 763 q 406 742 381 763 q 431 678 431 720 q 331 576 431 576 q 136 644 136 576 l 136 814 q 475 1017 136 1017 q 814 814 814 1017 l 814 712 z "},"ឲ":{"ha":949,"x_min":136,"x_max":814,"o":"m 644 262 q 642 310 644 290 q 613 336 639 331 q 600 326 607 330 l 465 220 q 423 202 442 202 q 386 241 403 222 q 370 273 370 258 q 393 309 370 292 l 513 404 q 628 524 612 481 q 644 589 644 567 q 629 638 644 623 q 580 654 614 654 q 523 639 545 654 q 500 589 500 623 q 576 551 500 551 q 490 493 534 493 q 421 517 449 493 q 394 589 394 541 q 443 701 394 655 q 580 746 492 746 q 764 701 715 746 q 814 589 814 656 q 793 515 814 554 q 711 412 768 467 q 781 369 755 398 q 814 262 814 330 l 814 203 q 475 0 814 0 q 136 203 136 0 l 136 814 q 475 1017 136 1017 q 814 814 814 1017 l 610 814 q 471 949 610 949 q 339 814 339 949 l 339 203 q 471 68 339 68 q 644 203 644 68 l 644 262 z "},"ឳ":{"ha":949,"x_min":122,"x_max":848,"o":"m 848 1154 q 762 979 848 1027 q 764 996 764 987 q 691 1109 764 1046 q 475 1173 617 1173 q 245 1154 267 1173 q 224 1109 224 1134 q 317 1028 224 1076 l 209 980 q 122 1075 122 1008 l 122 1126 q 166 1202 122 1161 l 211 1244 q 475 1328 307 1328 q 752 1243 640 1328 l 752 1257 q 692 1392 752 1351 l 661 1415 q 642 1445 642 1428 q 652 1472 642 1457 q 682 1491 665 1491 q 719 1476 699 1491 l 762 1446 q 848 1229 848 1385 l 848 1154 m 339 695 l 339 644 q 363 678 363 644 q 339 695 363 695 m 814 712 q 458 425 814 583 l 339 372 l 339 203 q 400 68 339 68 q 610 223 515 68 l 610 380 l 814 448 l 814 0 q 678 -115 814 -115 q 576 -47 576 -115 q 610 0 610 -47 l 610 96 q 400 0 542 0 q 136 203 136 0 l 136 385 l 373 491 q 610 712 610 597 l 610 814 q 475 949 610 949 q 339 814 339 949 l 339 763 q 406 742 381 763 q 431 678 431 720 q 331 576 431 576 q 136 644 136 576 l 136 814 q 475 1017 136 1017 q 814 814 814 1017 l 814 712 z "},"ា":{"ha":475,"x_min":-249,"x_max":305,"o":"m 305 712 l 305 0 l 170 0 l 170 712 q 127 791 170 766 l 30 850 q -68 882 -21 882 q -204 816 -111 882 l -249 878 q -68 1017 -140 1017 q 88 974 16 1017 l 197 908 q 305 712 305 843 z "},"ិ":{"ha":0,"x_min":-780,"x_max":-170,"o":"m -780 1322 q -576 1492 -780 1492 q -227 1339 -400 1492 q -170 1255 -170 1289 q -237 1221 -170 1221 l -644 1221 q -780 1322 -780 1221 m -644 1322 q -610 1289 -644 1289 l -292 1289 q -440 1342 -380 1327 q -576 1356 -501 1356 q -644 1322 -644 1356 z "},"ី":{"ha":0,"x_min":-780,"x_max":-170,"o":"m -644 1322 q -610 1289 -644 1289 l -292 1289 q -440 1342 -380 1327 q -576 1356 -501 1356 q -644 1322 -644 1356 m -285 1386 l -285 1560 l -170 1560 l -170 1255 q -237 1221 -170 1221 l -644 1221 q -780 1322 -780 1221 q -576 1492 -780 1492 q -285 1386 -429 1492 z "},"ឹ":{"ha":0,"x_min":-780,"x_max":-170,"o":"m -438 1455 l -438 1457 q -397 1534 -431 1508 q -305 1560 -363 1560 q -203 1526 -237 1560 q -170 1424 -170 1492 q -214 1313 -170 1346 l -216 1312 q -170 1255 -170 1273 q -237 1221 -170 1221 l -644 1221 q -780 1322 -780 1221 q -590 1492 -780 1492 q -438 1455 -517 1492 m -359 1411 q -326 1390 -342 1401 q -295 1370 -309 1380 q -251 1424 -251 1375 q -305 1478 -251 1478 q -359 1424 -359 1478 q -359 1411 -359 1420 m -644 1322 q -610 1289 -644 1289 l -292 1289 q -440 1342 -380 1327 q -576 1356 -501 1356 q -644 1322 -644 1356 z "},"ឺ":{"ha":0,"x_min":-780,"x_max":-170,"o":"m -644 1322 q -610 1289 -644 1289 l -292 1289 q -440 1342 -380 1327 q -576 1356 -501 1356 q -644 1322 -644 1356 m -475 1479 l -475 1560 l -359 1560 l -359 1434 q -285 1386 -322 1413 l -285 1560 l -170 1560 l -170 1255 q -237 1221 -170 1221 l -644 1221 q -780 1322 -780 1221 q -576 1492 -780 1492 q -475 1479 -526 1492 z "},"ុ":{"ha":0,"x_min":-339,"x_max":-170,"o":"m -170 -441 l -305 -441 l -305 -181 q -339 -127 -339 -169 q -254 -68 -339 -68 q -170 -127 -170 -68 l -170 -441 z "},"ូ":{"ha":0,"x_min":-577,"x_max":-136,"o":"m -380 -441 q -570 -327 -570 -441 q -557 -253 -570 -294 l -523 -160 q -577 -98 -577 -160 q -462 -37 -577 -37 q -378 -115 -378 -37 q -393 -191 -378 -146 l -420 -271 q -428 -307 -428 -292 q -380 -345 -428 -345 q -272 -206 -315 -345 q -153 -37 -223 -37 q -136 -79 -136 -37 q -161 -253 -136 -133 q -380 -441 -201 -441 z "},"ួ":{"ha":0,"x_min":-669,"x_max":-136,"o":"m -416 -360 q -536 -441 -478 -441 q -669 -358 -669 -441 q -629 -235 -669 -310 l -587 -157 q -644 -95 -644 -157 q -529 -33 -644 -33 q -441 -75 -461 -33 q -434 -108 -434 -90 q -458 -191 -434 -142 l -499 -267 q -525 -340 -525 -317 q -509 -357 -525 -357 q -378 -237 -473 -357 q -339 -357 -363 -357 q -300 -280 -317 -357 q -223 -33 -250 -33 q -136 -94 -136 -33 q -168 -312 -136 -182 q -312 -441 -199 -441 q -416 -360 -389 -441 z "},"ើ":{"ha":0,"x_min":-780,"x_max":-170,"o":"m -644 1322 q -610 1289 -644 1289 l -292 1289 q -440 1342 -380 1327 q -576 1356 -501 1356 q -644 1322 -644 1356 m -285 1386 l -285 1560 l -170 1560 l -170 1255 q -237 1221 -170 1221 l -644 1221 q -780 1322 -780 1221 q -576 1492 -780 1492 q -285 1386 -429 1492 z "},"ឿ":{"ha":475,"x_min":-380,"x_max":339,"o":"m -244 1356 q -210 1322 -244 1322 l 109 1322 q -40 1376 20 1361 q -176 1390 -101 1390 q -244 1356 -244 1390 m 231 1320 q 339 1153 339 1258 l 339 -271 q 0 -441 339 -441 q -339 -271 -339 -441 l -339 -68 l -136 -68 l -136 -271 q 0 -373 -136 -373 q 136 -271 136 -373 l 136 1153 q 60 1255 136 1255 l -244 1255 q -380 1356 -380 1255 q -176 1526 -380 1526 q -75 1513 -125 1526 l -75 1594 l 41 1594 l 41 1468 q 115 1420 78 1447 l 115 1594 l 231 1594 l 231 1320 z "},"ៀ":{"ha":475,"x_min":-400,"x_max":339,"o":"m 339 -271 q 0 -441 339 -441 q -339 -271 -339 -441 l -339 -68 l -136 -68 l -136 -271 q 0 -373 -136 -373 q 136 -271 136 -373 l 136 1112 q 7 1322 136 1322 q -143 1273 -102 1322 q -213 1221 -184 1223 l -219 1221 q -306 1241 -278 1221 q -366 1371 -366 1292 q -353 1460 -366 1415 q -339 1554 -339 1506 q -400 1601 -339 1601 q -298 1669 -400 1669 q -136 1554 -136 1669 q -153 1457 -136 1496 q -171 1371 -171 1418 l -171 1341 q 7 1390 -81 1390 q 339 1112 339 1390 l 339 -271 z "},"េ":{"ha":475,"x_min":34,"x_max":427,"o":"m 305 186 q 332 136 305 136 q 359 203 359 136 q 332 264 359 264 q 305 186 305 264 m 136 640 q 34 733 136 711 q 105 909 47 802 q 200 1017 163 1017 q 278 988 230 1017 l 326 959 q 375 946 347 946 q 407 949 390 946 q 375 849 400 902 q 316 791 349 795 q 307 791 312 791 q 222 819 275 791 q 177 833 195 833 q 144 812 154 833 l 126 772 q 339 678 339 732 l 339 339 q 427 203 427 339 q 392 68 427 136 q 271 0 356 0 q 136 68 136 0 l 136 640 z "},"ែ":{"ha":475,"x_min":34,"x_max":427,"o":"m 197 1221 q 166 1204 166 1221 q 183 1187 166 1187 q 243 1219 215 1187 q 271 1302 271 1251 q 251 1365 271 1339 q 200 1390 231 1390 q 170 1441 170 1390 q 231 1492 170 1492 q 357 1443 307 1492 q 407 1302 407 1394 q 358 1175 407 1231 q 203 1119 309 1119 q 81 1140 127 1119 q 34 1204 34 1161 q 53 1267 34 1246 q 109 1289 71 1289 q 171 1272 146 1289 q 197 1221 197 1255 m 305 186 q 332 136 305 136 q 359 203 359 136 q 332 264 359 264 q 305 186 305 264 m 136 640 q 34 733 136 711 q 105 909 47 802 q 200 1017 163 1017 q 278 988 230 1017 l 326 959 q 375 946 347 946 q 407 949 390 946 q 375 849 400 902 q 316 791 349 795 q 307 791 312 791 q 222 819 275 791 q 177 833 195 833 q 144 812 154 833 l 126 772 q 339 678 339 732 l 339 339 q 427 203 427 339 q 392 68 427 136 q 271 0 356 0 q 136 68 136 0 l 136 640 z "},"ៃ":{"ha":475,"x_min":34,"x_max":427,"o":"m 153 1268 q 203 1221 203 1268 q 220 1187 203 1187 q 254 1204 237 1187 q 271 1255 271 1221 q 254 1319 271 1302 q 203 1336 237 1336 q 68 1404 68 1336 q 34 1458 68 1458 q 102 1526 34 1526 q 179 1495 155 1526 q 203 1404 203 1465 l 237 1404 q 369 1370 331 1404 q 407 1255 407 1336 q 369 1153 407 1187 q 237 1119 331 1119 q 68 1214 68 1119 q 153 1268 68 1268 m 305 186 q 332 136 305 136 q 359 203 359 136 q 332 264 359 264 q 305 186 305 264 m 136 640 q 34 733 136 711 q 105 909 47 802 q 200 1017 163 1017 q 278 988 230 1017 l 326 959 q 375 946 347 946 q 407 949 390 946 q 375 849 400 902 q 316 791 349 795 q 307 791 312 791 q 222 819 275 791 q 177 833 195 833 q 144 812 154 833 l 126 772 q 339 678 339 732 l 339 339 q 427 203 427 339 q 392 68 427 136 q 271 0 356 0 q 136 68 136 0 l 136 640 z "},"ោ":{"ha":475,"x_min":-249,"x_max":305,"o":"m 305 712 l 305 0 l 170 0 l 170 712 q 127 791 170 766 l 30 850 q -68 882 -21 882 q -204 816 -111 882 l -249 878 q -68 1017 -140 1017 q 88 974 16 1017 l 197 908 q 305 712 305 843 z "},"ៅ":{"ha":475,"x_min":-249,"x_max":339,"o":"m 212 899 l 212 1153 q 144 1221 212 1221 q 229 1289 144 1289 q 339 1153 339 1289 l 339 949 q 283 817 339 903 q 305 712 305 771 l 305 0 l 170 0 l 170 712 q 127 791 170 766 l 30 850 q -68 882 -21 882 q -204 816 -111 882 l -249 878 q -68 1017 -140 1017 q 88 974 16 1017 l 197 908 q 212 899 204 903 z "},"ំ":{"ha":0,"x_min":-661,"x_max":-288,"o":"m -529 1373 q -515 1322 -529 1339 q -475 1305 -502 1305 q -434 1322 -448 1305 q -420 1373 -420 1339 q -434 1424 -420 1407 q -475 1441 -448 1441 q -515 1424 -502 1441 q -529 1373 -529 1407 m -288 1373 q -334 1259 -288 1297 q -475 1221 -381 1221 q -615 1259 -568 1221 q -661 1373 -661 1297 q -615 1488 -661 1450 q -475 1526 -568 1526 q -334 1488 -381 1526 q -288 1373 -288 1450 z "},"ះ":{"ha":644,"x_min":136,"x_max":509,"o":"m 268 831 q 281 780 268 797 q 322 763 295 763 q 363 780 349 763 q 376 831 376 797 q 363 882 376 865 q 322 899 349 899 q 281 882 295 899 q 268 831 268 865 m 509 831 q 463 716 509 754 q 322 678 416 678 q 182 716 229 678 q 136 831 136 754 q 182 945 136 907 q 322 983 229 983 q 463 945 416 983 q 509 831 509 907 m 268 186 q 281 136 268 153 q 322 119 295 119 q 363 136 349 119 q 376 186 376 153 q 363 237 376 220 q 322 254 349 254 q 281 237 295 254 q 268 186 268 220 m 509 186 q 463 72 509 110 q 322 34 416 34 q 182 72 229 34 q 136 186 136 110 q 182 301 136 263 q 322 339 229 339 q 463 301 416 339 q 509 186 509 263 z "},"ៈ":{"ha":576,"x_min":136,"x_max":441,"o":"m 245 102 q 163 123 190 102 q 136 186 136 144 q 163 250 136 229 q 245 271 190 271 q 327 250 300 271 q 353 186 353 229 q 376 165 353 165 q 441 186 397 165 q 370 123 419 144 q 245 102 321 102 m 245 745 q 163 766 190 745 q 136 829 136 787 q 163 893 136 872 q 245 914 190 914 q 327 892 300 914 q 353 829 353 871 q 376 808 353 808 q 441 829 397 808 q 370 766 419 787 q 245 745 321 745 z "},"៉":{"ha":0,"x_min":-675,"x_max":-275,"o":"m -529 1526 l -529 1295 q -602 1221 -529 1241 q -675 1295 -675 1241 l -675 1526 l -529 1526 m -275 1526 l -275 1295 q -347 1221 -275 1241 q -420 1295 -420 1241 l -420 1526 l -275 1526 z "},"៊":{"ha":0,"x_min":-865,"x_max":-85,"o":"m -784 1034 q -865 1099 -865 1070 q -821 1173 -865 1133 l -776 1212 q -665 1293 -687 1293 q -567 1220 -642 1293 l -529 1183 q -492 1165 -511 1165 q -457 1183 -475 1165 l -423 1220 q -330 1293 -355 1293 q -268 1252 -307 1293 l -191 1171 q -135 1147 -168 1147 q -85 1159 -113 1147 q -197 1050 -153 1050 q -266 1076 -241 1050 l -315 1128 q -370 1155 -340 1155 q -445 1103 -399 1155 q -519 1050 -492 1050 q -592 1076 -564 1050 l -647 1128 q -704 1155 -675 1155 q -745 1136 -726 1155 q -763 1101 -763 1116 q -713 1079 -763 1085 l -784 1034 z "},"់":{"ha":0,"x_min":-566,"x_max":-383,"o":"m -383 1560 l -383 1302 q -475 1221 -383 1241 q -566 1302 -566 1241 l -566 1560 l -383 1560 z "},"៌":{"ha":0,"x_min":-742,"x_max":-208,"o":"m -526 1299 q -597 1254 -555 1286 q -664 1221 -638 1221 q -733 1239 -720 1221 q -742 1265 -742 1252 q -699 1337 -742 1306 l -635 1380 q -517 1497 -538 1446 q -496 1577 -496 1548 q -404 1645 -496 1645 q -347 1577 -347 1645 q -370 1488 -348 1527 q -485 1374 -391 1449 q -396 1391 -438 1391 q -321 1387 -341 1391 q -221 1312 -262 1374 q -208 1270 -208 1288 q -233 1230 -208 1244 q -295 1221 -248 1221 q -341 1255 -321 1221 q -417 1312 -371 1305 q -526 1299 -497 1312 z "},"៍":{"ha":0,"x_min":-661,"x_max":-166,"o":"m -526 1340 q -517 1302 -526 1314 q -485 1289 -509 1289 q -471 1301 -471 1289 q -424 1322 -471 1322 q -376 1301 -376 1322 q -406 1241 -376 1261 q -502 1221 -436 1221 q -631 1251 -602 1221 q -661 1339 -661 1280 q -631 1432 -661 1392 q -498 1472 -600 1472 q -380 1432 -412 1472 q -284 1478 -328 1449 q -212 1556 -241 1508 l -205 1558 q -176 1538 -192 1558 q -166 1515 -166 1525 q -174 1499 -166 1506 q -245 1422 -205 1456 q -338 1364 -287 1389 q -385 1356 -362 1356 q -478 1404 -435 1404 q -507 1385 -488 1404 q -526 1340 -526 1365 z "},"៎":{"ha":0,"x_min":-651,"x_max":-298,"o":"m -549 1322 l -651 1322 l -651 1404 l -549 1404 l -549 1505 l -400 1505 l -400 1404 l -298 1404 l -298 1322 l -400 1322 l -400 1221 l -549 1221 l -549 1322 z "},"៏":{"ha":0,"x_min":-739,"x_max":-210,"o":"m -326 1662 q -258 1594 -258 1662 q -326 1526 -258 1526 q -381 1492 -349 1526 l -392 1458 l -461 1458 q -604 1356 -604 1458 q -576 1289 -604 1289 q -475 1381 -549 1289 q -366 1289 -400 1289 q -346 1322 -346 1289 q -380 1356 -346 1356 q -295 1424 -380 1424 q -210 1322 -210 1424 q -363 1221 -210 1221 q -475 1289 -427 1221 q -580 1221 -522 1221 q -739 1356 -739 1221 q -461 1526 -739 1526 q -326 1662 -412 1662 z "},"័":{"ha":0,"x_min":-644,"x_max":-102,"o":"m -495 1458 q -407 1387 -407 1458 q -458 1322 -407 1322 q -509 1356 -502 1322 q -441 1289 -509 1289 q -279 1325 -322 1289 q -237 1433 -237 1361 q -271 1514 -237 1514 q -305 1548 -305 1514 q -271 1582 -305 1582 q -144 1545 -186 1582 q -102 1433 -102 1508 q -178 1274 -102 1326 q -441 1221 -254 1221 q -602 1255 -559 1221 q -644 1356 -644 1289 q -495 1458 -644 1458 z "},"៑":{"ha":0,"x_min":-797,"x_max":-153,"o":"m -153 1221 l -153 1119 l -797 1119 l -797 1221 l -153 1221 z "},"្":{"ha":0,"x_min":-610,"x_max":-339,"o":"m -339 -305 l -441 -305 l -441 -407 l -509 -407 l -509 -305 l -610 -305 l -610 -237 l -509 -237 l -509 -136 l -441 -136 l -441 -237 l -339 -237 l -339 -305 z "},"៓":{"ha":0,"x_min":-644,"x_max":-305,"o":"m -576 1255 q -551 1204 -576 1221 q -475 1187 -526 1187 q -398 1204 -424 1187 q -373 1255 -373 1221 q -398 1305 -373 1289 q -475 1322 -424 1322 q -551 1305 -526 1322 q -576 1255 -576 1289 m -305 1255 q -348 1153 -305 1187 q -475 1119 -390 1119 q -602 1153 -559 1119 q -644 1255 -644 1187 q -602 1356 -644 1322 q -475 1390 -559 1390 q -348 1356 -390 1390 q -305 1255 -305 1322 z "},"។":{"ha":1051,"x_min":136,"x_max":916,"o":"m 712 944 l 712 1017 l 916 1017 l 916 139 q 849 30 916 60 q 719 0 783 0 q 663 17 682 0 q 644 68 644 34 q 700 81 687 68 q 712 139 712 94 l 712 828 l 635 781 q 387 678 469 678 q 136 848 136 678 q 387 1017 136 1017 q 454 966 454 1017 q 387 916 454 916 q 339 848 339 916 q 387 780 339 780 q 587 870 439 780 l 712 944 z "},"៕":{"ha":1322,"x_min":136,"x_max":1187,"o":"m 1017 1017 l 1187 1017 l 1187 102 q 1145 26 1187 51 q 949 0 1102 0 q 1000 42 983 17 q 1017 102 1017 68 l 1017 1017 m 712 944 l 712 1017 l 916 1017 l 916 139 q 849 30 916 60 q 719 0 783 0 q 663 17 682 0 q 644 68 644 34 q 700 81 687 68 q 712 139 712 94 l 712 828 l 635 781 q 387 678 469 678 q 136 848 136 678 q 387 1017 136 1017 q 454 966 454 1017 q 387 916 454 916 q 339 848 339 916 q 387 780 339 780 q 587 870 439 780 l 712 944 z "},"៖":{"ha":712,"x_min":136,"x_max":576,"o":"m 288 831 q 305 780 288 797 q 356 763 322 763 q 407 780 390 763 q 424 831 424 797 q 407 882 424 865 q 356 899 390 899 q 305 882 322 899 q 288 831 288 865 m 543 831 q 496 716 543 754 q 356 678 450 678 q 216 716 262 678 q 170 831 170 754 q 216 945 170 907 q 356 983 262 983 q 496 945 450 983 q 543 831 543 907 m 288 186 q 305 136 288 153 q 356 119 322 119 q 407 136 390 119 q 424 186 424 153 q 407 237 424 220 q 356 254 390 254 q 305 237 322 254 q 288 186 288 220 m 543 186 q 496 72 543 110 q 356 34 450 34 q 216 72 262 34 q 170 186 170 110 q 216 301 170 263 q 356 339 262 339 q 496 301 450 339 q 543 186 543 263 m 576 559 l 576 457 l 136 457 l 136 559 l 576 559 z "},"ៗ":{"ha":1017,"x_min":136,"x_max":882,"o":"m 882 237 q 777 59 882 119 q 532 0 673 0 q 321 30 391 0 q 250 119 250 59 q 270 178 250 158 q 331 197 290 197 q 381 134 331 167 q 532 102 431 102 q 629 144 580 102 q 678 237 678 186 l 678 852 l 533 756 l 381 874 l 315 820 q 326 790 315 800 q 358 780 336 780 q 388 789 378 780 q 398 814 398 797 q 428 800 418 814 q 438 755 438 785 q 418 710 438 725 q 358 696 398 696 q 172 728 209 696 q 136 820 136 761 q 203 918 157 869 q 354 1017 249 968 l 532 875 l 728 1017 l 882 1017 l 882 237 z "},"៘":{"ha":3526,"x_min":136,"x_max":3391,"o":"m 3187 944 l 3187 1017 l 3391 1017 l 3391 139 q 3325 30 3391 60 q 3194 0 3259 0 q 3139 17 3157 0 q 3120 68 3120 34 q 3175 81 3162 68 q 3187 139 3187 94 l 3187 828 l 3110 781 q 2862 678 2945 678 q 2611 848 2611 678 q 2862 1017 2611 1017 q 2930 966 2930 1017 q 2862 916 2930 916 q 2814 848 2814 916 q 2862 780 2814 780 q 3063 870 2915 780 l 3187 944 m 1390 136 q 1424 271 1424 136 q 1390 326 1424 326 q 1356 260 1356 326 l 1356 193 q 1390 136 1356 136 m 2340 203 q 2001 0 2340 0 q 1662 203 1662 0 l 1662 814 q 1526 949 1662 949 q 1390 814 1390 949 l 1390 407 q 1492 271 1492 407 q 1450 68 1492 136 q 1322 0 1407 0 q 1187 68 1187 0 l 1187 814 q 1526 1017 1187 1017 q 1865 814 1865 1017 l 1865 203 q 2001 68 1865 68 q 2136 203 2136 68 l 2136 640 q 2035 733 2136 711 q 2106 909 2048 802 q 2201 1017 2164 1017 q 2279 988 2230 1017 l 2326 959 q 2376 946 2347 946 q 2407 949 2391 946 q 2375 849 2401 902 q 2317 791 2350 795 q 2308 791 2313 791 q 2223 819 2275 791 q 2178 833 2196 833 q 2145 812 2155 833 l 2127 772 q 2340 678 2340 732 l 2340 203 m 712 944 l 712 1017 l 916 1017 l 916 139 q 849 30 916 60 q 719 0 783 0 q 663 17 682 0 q 644 68 644 34 q 700 81 687 68 q 712 139 712 94 l 712 828 l 635 781 q 387 678 469 678 q 136 848 136 678 q 387 1017 136 1017 q 454 966 454 1017 q 387 916 454 916 q 339 848 339 916 q 387 780 339 780 q 587 870 439 780 l 712 944 z "},"៙":{"ha":1051,"x_min":203,"x_max":848,"o":"m 526 0 q 284 119 365 0 q 203 475 203 237 q 284 831 203 712 q 526 949 365 949 q 767 831 686 949 q 848 475 848 712 q 767 119 848 237 q 526 0 686 0 m 526 870 q 345 772 405 870 q 284 475 284 673 q 345 178 284 277 q 526 79 405 79 q 707 178 646 79 q 767 475 767 277 q 707 772 767 673 q 526 870 646 870 m 526 158 q 405 237 445 158 q 365 475 365 317 q 405 712 365 633 q 526 791 445 791 q 646 712 606 791 q 686 475 686 633 q 646 237 686 317 q 526 158 606 158 m 526 712 q 465 653 486 712 q 445 475 445 593 q 465 297 445 356 q 526 237 486 237 q 586 297 566 237 q 606 475 606 356 q 586 653 606 593 q 526 712 566 712 z "},"៚":{"ha":2658,"x_min":170,"x_max":2489,"o":"m 1981 365 q 1970 347 1970 353 q 1971 344 1970 345 q 1979 338 1974 338 q 1988 342 1983 338 q 1988 345 1988 343 q 1981 365 1988 350 m 1080 664 q 1122 753 1122 728 q 1117 767 1122 762 q 1085 783 1101 783 q 1048 760 1066 783 q 1044 744 1044 753 q 1072 676 1044 720 q 1080 664 1076 670 m 1269 298 q 1239 243 1239 260 q 1242 235 1239 238 q 1270 220 1255 220 q 1295 231 1282 220 q 1299 239 1299 233 q 1269 298 1299 257 m 1499 690 q 1527 737 1527 724 q 1525 742 1527 740 q 1503 755 1515 755 q 1482 747 1493 755 q 1479 739 1479 745 q 1499 690 1479 724 m 1653 317 q 1639 298 1639 302 q 1640 296 1639 297 q 1651 291 1645 291 q 1662 294 1656 291 q 1663 297 1663 295 q 1653 317 1663 302 m 1887 664 q 1904 685 1904 681 q 1903 686 1904 686 q 1895 689 1900 689 q 1883 683 1889 689 q 1881 680 1881 682 q 1887 664 1881 674 m 1976 538 q 2005 500 1992 519 q 2064 521 2032 513 q 2245 543 2142 543 l 2424 543 q 2489 492 2489 543 q 2422 441 2489 441 l 2245 441 q 2054 418 2099 441 q 2074 367 2068 391 q 2079 331 2079 347 q 2047 264 2079 289 q 1973 235 2008 235 q 1963 236 1968 235 q 1888 284 1923 241 q 1862 351 1862 317 q 1864 371 1862 361 q 1924 452 1874 412 q 1902 484 1914 467 q 1880 513 1890 498 q 1811 454 1849 484 q 1721 379 1758 410 q 1742 331 1734 353 q 1753 275 1753 300 q 1725 215 1753 237 q 1650 186 1685 186 q 1638 186 1644 186 q 1561 238 1596 193 q 1546 285 1546 258 q 1569 358 1546 317 q 1597 398 1581 377 q 1539 475 1573 431 l 1492 533 q 1416 452 1459 495 q 1329 366 1365 404 q 1374 285 1358 321 q 1390 219 1390 248 q 1358 155 1390 178 q 1265 117 1310 117 q 1257 118 1261 117 q 1166 172 1208 122 q 1145 231 1145 197 q 1166 311 1145 266 q 1206 376 1181 341 q 1139 449 1177 408 q 1089 503 1112 477 q 981 362 1044 438 q 697 91 829 181 q 451 0 564 0 q 240 127 311 0 q 170 509 170 254 q 250 890 170 763 q 492 1017 331 1017 q 734 950 653 1017 q 814 749 814 883 q 755 528 814 611 q 579 414 696 444 q 553 410 565 410 q 509 446 519 410 q 506 464 506 456 q 553 511 506 498 q 672 590 632 532 q 712 744 712 648 q 657 872 712 829 q 492 916 602 916 q 327 814 382 916 q 272 513 272 713 l 272 509 q 317 203 272 305 q 452 102 361 102 q 651 180 541 102 q 892 416 761 259 q 1025 585 973 514 q 971 682 989 637 q 954 759 954 724 q 983 836 954 804 q 1083 895 1033 894 l 1084 895 q 1183 838 1133 895 q 1208 766 1208 810 q 1182 663 1208 722 q 1142 585 1166 627 q 1206 514 1171 552 q 1265 449 1238 480 q 1340 528 1298 486 q 1434 619 1395 579 q 1397 704 1412 659 q 1386 762 1386 736 q 1419 833 1386 808 q 1506 867 1466 867 q 1516 867 1511 867 q 1600 812 1562 861 q 1618 758 1618 789 q 1593 673 1618 722 q 1555 611 1578 644 q 1610 541 1579 580 q 1664 470 1640 504 q 1735 534 1695 500 q 1820 604 1785 574 q 1796 661 1804 635 q 1790 701 1790 682 q 1822 764 1790 741 q 1895 793 1860 793 q 1907 792 1901 793 q 1984 741 1948 787 q 2001 694 2001 721 q 1977 624 2001 663 q 1944 579 1964 603 q 1976 538 1959 561 z "},"៛":{"ha":475,"x_min":34,"x_max":407,"o":"m 142 264 q 115 203 115 264 q 142 136 115 136 q 170 186 170 136 q 142 264 170 264 m 339 543 l 390 543 l 390 441 l 339 441 l 339 68 q 203 0 339 0 q 83 68 119 0 q 47 203 47 136 q 136 339 47 339 l 136 441 l 51 441 l 51 543 l 136 543 l 136 640 q 34 733 136 711 q 105 909 47 802 q 200 1017 163 1017 q 278 988 230 1017 l 326 959 q 375 946 347 946 q 407 949 390 946 q 375 849 400 902 q 316 791 349 795 q 307 791 312 791 q 222 819 275 791 q 177 833 195 833 q 144 812 154 833 l 126 772 q 339 678 339 732 l 339 543 z "},"០":{"ha":1051,"x_min":136,"x_max":916,"o":"m 233 127 q 184 191 233 127 q 136 407 136 254 l 136 610 q 233 890 136 763 q 526 1017 331 1017 q 818 890 721 1017 q 916 610 916 763 l 916 407 q 818 127 916 254 q 526 0 721 0 q 233 127 331 0 m 384 817 q 361 765 384 817 q 339 610 339 714 l 339 407 q 384 200 339 303 q 526 98 429 98 q 668 200 623 98 q 712 407 712 303 l 712 610 q 668 817 712 714 q 526 920 623 920 q 384 817 429 920 z "},"១":{"ha":1051,"x_min":136,"x_max":916,"o":"m 916 610 q 795 158 916 315 q 407 0 673 0 q 339 49 339 0 q 407 98 339 98 q 641 228 569 98 q 712 610 712 357 q 657 858 712 795 q 513 920 603 920 q 363 861 422 920 q 305 699 305 802 q 334 571 305 614 q 429 529 363 529 q 496 576 477 529 q 441 637 441 586 q 526 726 441 726 q 610 637 610 726 q 564 492 610 545 q 429 438 516 438 q 204 512 272 438 q 136 699 136 585 q 223 924 136 831 q 513 1017 311 1017 q 815 921 714 1017 q 916 610 916 824 z "},"២":{"ha":1261,"x_min":68,"x_max":1126,"o":"m 651 593 l 651 543 q 684 576 684 543 q 675 589 684 585 q 651 593 667 593 m 543 0 q 231 78 326 0 q 136 271 136 156 l 136 983 q 68 1062 136 1062 q 156 1153 68 1153 q 339 983 339 1153 l 339 271 q 398 141 339 184 q 543 98 457 98 l 685 98 q 863 141 804 98 q 922 271 922 184 l 922 814 q 892 857 922 857 q 787 780 863 857 q 682 857 713 857 q 651 814 651 857 l 651 661 q 726 640 701 661 q 751 576 751 618 q 651 475 751 475 l 549 475 q 448 543 448 475 l 448 814 q 522 957 448 897 q 650 1017 595 1017 q 787 899 704 1017 q 925 1017 871 1017 q 1052 957 979 1017 q 1126 814 1126 897 l 1126 271 q 1031 78 1126 156 q 685 0 936 0 l 543 0 z "},"៣":{"ha":1227,"x_min":136,"x_max":1092,"o":"m 339 119 l 339 68 q 372 102 372 68 q 363 115 372 110 q 339 119 355 119 m 515 780 q 424 926 515 926 q 339 780 339 926 l 339 186 q 414 165 389 186 q 439 102 439 144 q 339 0 439 0 q 136 68 136 0 l 136 780 q 424 1017 136 1017 q 621 958 557 1017 q 805 1017 685 1017 q 1092 780 1092 1017 l 1092 68 q 990 0 1092 0 q 888 68 888 0 l 888 780 q 805 926 888 926 q 719 780 719 926 l 719 68 q 617 0 719 0 q 515 68 515 0 l 515 780 z "},"៤":{"ha":1051,"x_min":136,"x_max":916,"o":"m 834 475 q 841 498 841 481 q 814 533 841 519 l 814 467 q 834 475 827 467 m 136 543 q 417 850 136 769 l 609 912 q 712 1038 712 958 q 652 1085 712 1085 q 754 1153 652 1153 q 916 1038 916 1153 q 650 822 916 895 l 444 758 q 339 543 339 718 l 339 203 q 371 131 339 164 q 475 98 403 98 l 754 98 q 610 305 610 252 l 610 475 q 743 610 610 610 q 858 594 827 610 q 902 547 889 577 q 916 478 916 517 q 892 407 916 441 q 814 373 868 373 l 814 305 q 865 161 814 237 l 916 85 l 916 0 l 475 0 q 220 68 305 0 q 136 203 136 136 l 136 543 z "},"៥":{"ha":1051,"x_min":136,"x_max":983,"o":"m 456 822 q 479 867 479 845 q 426 926 479 926 q 373 867 373 926 q 456 822 373 837 m 834 407 q 841 431 841 414 q 814 465 841 452 l 814 399 q 834 407 827 399 m 553 805 l 633 795 q 646 795 640 795 q 712 882 712 795 l 712 1038 q 902 1153 712 1153 q 983 1085 983 1153 q 916 1038 916 1085 l 916 882 q 729 678 916 678 l 467 722 q 420 695 446 709 q 339 481 339 648 l 339 203 q 371 131 339 164 q 475 98 403 98 l 754 98 q 610 271 610 218 l 610 407 q 743 543 610 543 q 858 526 827 543 q 902 479 889 509 q 916 410 916 449 q 892 339 916 373 q 814 305 868 305 l 814 271 q 916 85 814 203 l 916 0 l 475 0 q 220 68 305 0 q 136 203 136 136 l 136 481 q 350 758 136 671 q 282 867 282 795 q 426 1017 282 1017 q 570 867 570 1017 q 553 805 570 835 z "},"៦":{"ha":1051,"x_min":34,"x_max":916,"o":"m 339 926 q 530 1017 419 1017 q 825 910 734 1017 q 916 543 916 804 l 916 407 q 825 107 916 214 q 526 0 734 0 q 216 96 297 0 q 136 319 136 193 q 197 482 136 422 q 401 543 258 543 q 533 503 489 543 q 576 370 576 463 q 509 302 576 302 q 441 370 441 302 q 462 425 441 408 q 401 452 443 452 q 339 319 339 452 q 377 160 339 222 q 526 98 415 98 q 668 170 623 98 q 712 407 712 242 l 712 543 q 668 847 712 775 q 530 920 623 920 q 339 746 408 920 q 199 678 339 678 q 136 746 136 678 l 136 1017 q 34 1096 136 1096 q 156 1187 34 1187 q 339 1017 339 1187 l 339 926 z "},"៧":{"ha":1289,"x_min":136,"x_max":1153,"o":"m 305 151 q 372 264 372 212 q 338 304 372 304 q 305 151 305 304 m 848 136 q 899 98 848 98 q 949 136 949 98 l 949 983 q 848 1062 949 1062 q 936 1153 848 1153 q 1153 983 1153 1153 l 1153 136 q 899 0 1153 0 q 644 136 644 0 l 644 814 q 604 869 644 857 q 595 870 600 870 q 492 779 556 870 q 389 870 428 870 q 380 869 384 870 q 339 814 339 857 l 339 407 q 433 367 404 407 q 463 281 463 326 q 435 170 463 229 q 357 55 408 110 q 254 0 305 0 q 136 68 136 0 l 136 814 q 231 957 136 897 q 370 1017 327 1017 q 492 926 405 1017 q 615 1017 579 1017 q 752 957 657 1017 q 848 814 848 897 l 848 136 z "},"៨":{"ha":1051,"x_min":136,"x_max":1017,"o":"m 712 399 l 712 465 q 685 431 685 452 q 692 407 685 414 q 712 399 699 399 m 136 678 q 216 920 136 824 q 515 1017 296 1017 q 712 926 632 1017 l 712 1017 q 895 1187 712 1187 q 1017 1096 1017 1187 q 916 1017 916 1096 l 916 780 q 818 712 916 712 q 720 746 735 712 q 515 920 643 920 q 367 858 394 920 q 339 678 339 795 l 339 203 q 364 125 339 160 q 392 117 377 117 q 526 218 446 117 q 661 117 607 117 q 688 125 675 117 q 712 203 712 160 l 712 305 q 634 339 658 305 q 610 410 610 373 q 624 479 610 449 q 668 526 637 509 q 791 543 699 543 q 916 407 916 543 l 916 203 q 829 60 916 121 q 683 0 743 0 q 526 98 623 0 q 370 0 430 0 q 222 60 309 0 q 136 203 136 121 l 136 678 z "},"៩":{"ha":1051,"x_min":136,"x_max":916,"o":"m 715 174 l 753 197 q 743 213 753 213 q 734 211 739 213 q 714 196 718 205 q 712 186 712 192 q 715 174 712 181 m 640 134 q 629 189 629 165 q 637 225 629 210 q 688 273 653 260 q 751 286 720 286 l 757 286 q 819 262 789 285 q 848 169 848 239 q 749 49 848 98 q 509 0 649 0 q 227 71 307 0 q 136 305 136 150 q 186 496 136 420 q 372 608 237 572 q 271 780 271 667 q 341 966 271 907 q 562 1017 401 1017 q 712 953 666 1017 l 712 1017 q 652 1096 712 1096 q 741 1187 652 1187 q 916 1017 916 1187 l 916 814 q 818 746 916 746 q 720 780 735 746 q 562 926 656 926 q 496 894 517 926 q 475 783 475 862 q 495 676 475 712 q 597 640 515 640 q 844 547 728 640 q 882 453 882 514 q 866 425 882 425 q 804 467 846 425 q 597 543 726 543 q 403 483 467 543 q 339 305 339 424 q 381 148 339 199 q 509 98 424 98 q 640 134 567 98 z "}," ":{"ha":361,"x_min":0,"x_max":0,"o":""}}}
